# MediumFishB (Khronos Aquarium)
# textures: {"normalMap":"MediumFishB_NM.png","diffuse":"MediumFishB_DM.jpg","reflectionMap":"MediumFishB_RM.jpg"}
v 0.314503 -0.103465 0.934848
v 0.247121 -0.319739 0.781487
v 0.676511 0.021367 -0.264389
v 0.318996 -0.370502 0.493586
v 0.676511 0.021367 -0.264389
v 0.247121 -0.319739 0.781487
v 0.000000 -0.543409 0.658988
v 0.000000 -0.543338 0.875025
v 0.119430 -0.649682 0.443128
v 0.305468 -1.081560 0.470716
v 0.119430 -0.649682 0.443128
v 0.000000 -0.543338 0.875025
v 0.000000 -0.483055 -0.239731
v 0.039416 -0.291502 -0.696740
v 0.232674 -0.180532 -0.357367
v 0.160644 0.000786 -0.854242
v 0.000000 0.257893 -0.867717
v 0.232674 -0.180532 -0.357367
v 0.310232 -0.222404 0.459426
v 0.281312 -0.199222 0.982721
v 0.000000 -0.553693 0.443128
v 0.000000 0.639698 -2.122490
v 0.000000 0.618379 -1.991450
v 0.037350 0.285730 -1.800870
v 0.096043 -0.035626 -1.278500
v 0.057111 -0.043246 -1.570980
v 0.000000 0.172922 -1.215850
v 0.261594 -0.230379 -0.035983
v 0.044288 0.500405 -0.273722
v 0.048199 0.592129 -0.044232
v 0.096043 -0.035626 -1.278500
v 0.000000 -0.199988 -1.280390
v 0.057111 -0.043246 -1.570980
v 0.000000 -0.603739 -1.937440
v 0.033137 -0.245174 -1.824710
v 0.000000 -0.342376 -1.506690
v 0.039416 -0.291502 -0.696740
v 0.000000 -0.215754 -0.845398
v 0.160644 0.000786 -0.854242
v 0.261594 -0.230379 -0.035983
v 0.048199 0.592129 -0.044232
v 0.310232 -0.222404 0.459426
v 0.000000 -0.391609 1.598510
v 0.000000 -0.516366 0.988801
v 0.232674 -0.187100 1.550340
v 0.310232 -0.222404 0.459426
v 0.056259 0.706363 0.411391
v 0.281312 -0.199222 0.982721
v 0.000000 0.011216 -2.031530
v 0.000000 0.639698 -2.122490
v 0.037350 0.285730 -1.800870
v 0.232674 -0.187100 1.550340
v 0.000000 0.680787 0.990625
v 0.000000 0.391064 1.598120
v 0.000000 -0.543338 0.875025
v 0.281312 -0.199222 0.982721
v 0.000000 -0.516366 0.988801
v 0.261594 -0.230379 -0.035983
v 0.310232 -0.222404 0.459426
v 0.000000 -0.530849 0.028424
v 0.232674 -0.180532 -0.357367
v 0.261594 -0.230379 -0.035983
v 0.000000 -0.483055 -0.239731
v 0.000000 -0.603739 -1.937440
v 0.000000 -0.631116 -2.107860
v 0.033137 -0.245174 -1.824710
v 0.096043 -0.035626 -1.278500
v 0.000000 0.172922 -1.215850
v 0.160644 0.000786 -0.854242
v 0.183379 -0.129469 1.937290
v 0.000000 0.391064 1.598120
v 0.000000 0.031637 2.087610
v 0.000000 -0.635142 -0.438178
v 0.000000 -0.614067 -1.087560
v 0.039416 -0.291502 -0.696740
v 0.000000 0.273707 -1.454250
v 0.000000 0.172922 -1.215850
v 0.057111 -0.043246 -1.570980
v 0.000000 -0.242132 1.993620
v 0.000000 -0.391609 1.598510
v 0.183379 -0.129469 1.937290
v 0.057111 -0.043246 -1.570980
v 0.000000 -0.199988 -1.280390
v 0.000000 -0.342376 -1.506690
v 0.000000 -0.483055 -0.239731
v 0.261594 -0.230379 -0.035983
v 0.000000 -0.530849 0.028424
v 0.000000 0.618379 -1.991450
v 0.000000 0.273707 -1.454250
v 0.037350 0.285730 -1.800870
v 0.057111 -0.043246 -1.570980
v 0.037350 0.285730 -1.800870
v 0.000000 0.273707 -1.454250
v 0.183379 -0.129469 1.937290
v 0.000000 0.031637 2.087610
v 0.000000 -0.120025 2.186320
v 0.000000 -0.120025 2.186320
v 0.000000 -0.242132 1.993620
v 0.183379 -0.129469 1.937290
v 0.036307 0.432787 -0.431442
v 0.044288 0.500405 -0.273722
v 0.232674 -0.180532 -0.357367
v 0.000000 -0.631116 -2.107860
v 0.000000 0.011216 -2.031530
v 0.033137 -0.245174 -1.824710
v 0.000000 -0.553693 0.443128
v 0.000000 -0.530849 0.028424
v 0.310232 -0.222404 0.459426
v 0.000000 -0.342376 -1.506690
v 0.033137 -0.245174 -1.824710
v 0.057111 -0.043246 -1.570980
v 0.056259 0.706363 0.411391
v 0.310232 -0.222404 0.459426
v 0.048199 0.592129 -0.044232
v 0.000000 -0.635142 -0.438178
v 0.039416 -0.291502 -0.696740
v 0.000000 -0.483055 -0.239731
v 0.232674 -0.180532 -0.357367
v 0.044288 0.500405 -0.273722
v 0.261594 -0.230379 -0.035983
v 0.096043 -0.035626 -1.278500
v 0.160644 0.000786 -0.854242
v 0.000000 -0.199988 -1.280390
v 0.000000 -0.270106 -0.936442
v 0.039416 -0.291502 -0.696740
v 0.000000 -0.614067 -1.087560
v 0.000000 0.011216 -2.031530
v 0.037350 0.285730 -1.800870
v 0.057111 -0.043246 -1.570980
v 0.000000 0.257893 -0.867717
v 0.160644 0.000786 -0.854242
v 0.000000 0.172922 -1.215850
v 0.160644 0.000786 -0.854242
v 0.232674 -0.180532 -0.357367
v 0.039416 -0.291502 -0.696740
v 0.000000 0.011216 -2.031530
v 0.057111 -0.043246 -1.570980
v 0.033137 -0.245174 -1.824710
v 0.000000 -0.199988 -1.280390
v 0.160644 0.000786 -0.854242
v 0.000000 -0.215754 -0.845398
v 0.232674 -0.187100 1.550340
v 0.000000 0.391064 1.598120
v 0.183379 -0.129469 1.937290
v 0.232674 -0.187100 1.550340
v 0.183379 -0.129469 1.937290
v 0.000000 -0.391609 1.598510
v 0.281312 -0.199222 0.982721
v 0.000000 0.680787 0.990625
v 0.232674 -0.187100 1.550340
v 0.281312 -0.199222 0.982721
v 0.232674 -0.187100 1.550340
v 0.000000 -0.516366 0.988801
v 0.000000 0.680787 0.990625
v 0.281312 -0.199222 0.982721
v 0.056259 0.706363 0.411391
v 0.000000 -0.553693 0.443128
v 0.281312 -0.199222 0.982721
v 0.000000 -0.543338 0.875025
v 0.036307 0.432787 -0.431442
v 0.232674 -0.180532 -0.357367
v 0.000000 0.257893 -0.867717
v 0.036307 0.432787 -0.431442
v 0.000000 0.257893 -0.867717
v 0.000000 0.425873 -1.138400
v 0.000000 0.717324 -0.504547
v 0.044288 0.500405 -0.273722
v 0.036307 0.432787 -0.431442
v 0.000000 0.717324 -0.504547
v 0.000000 0.726664 -0.277148
v 0.048199 0.592129 -0.044232
v 0.044288 0.500405 -0.273722
v 0.000000 0.726664 -0.277148
v 0.000000 0.856097 -0.054511
v 0.056259 0.706363 0.411391
v 0.048199 0.592129 -0.044232
v 0.000000 0.856097 -0.054511
v 0.000000 1.083460 0.425096
v 0.000000 0.680787 0.990625
v 0.056259 0.706363 0.411391
v 0.000000 1.083460 0.425096
v 0.000000 0.896761 0.826160
v -0.119430 -0.649682 0.443128
v 0.000000 -0.543338 0.875025
v 0.000000 -0.543409 0.658988
v 0.000000 -0.543338 0.875025
v -0.119430 -0.649682 0.443128
v -0.305468 -1.081560 0.470716
v -0.232674 -0.180532 -0.357367
v -0.039416 -0.291502 -0.696740
v 0.000000 -0.483055 -0.239731
v -0.232674 -0.180532 -0.357367
v 0.000000 0.257893 -0.867717
v -0.160644 0.000786 -0.854242
v 0.000000 -0.553693 0.443128
v -0.281312 -0.199222 0.982721
v -0.310232 -0.222404 0.459426
v -0.037350 0.285730 -1.800870
v 0.000000 0.618379 -1.991450
v 0.000000 0.639698 -2.122490
v 0.000000 0.172922 -1.215850
v -0.057111 -0.043246 -1.570980
v -0.096043 -0.035626 -1.278500
v -0.048199 0.592129 -0.044232
v -0.044288 0.500405 -0.273722
v -0.261594 -0.230379 -0.035983
v -0.057111 -0.043246 -1.570980
v 0.000000 -0.199988 -1.280390
v -0.096043 -0.035626 -1.278500
v 0.000000 -0.342376 -1.506690
v -0.033137 -0.245174 -1.824710
v 0.000000 -0.603739 -1.937440
v -0.160644 0.000786 -0.854242
v 0.000000 -0.215754 -0.845398
v -0.039416 -0.291502 -0.696740
v -0.310232 -0.222404 0.459426
v -0.048199 0.592129 -0.044232
v -0.261594 -0.230379 -0.035983
v -0.232674 -0.187100 1.550340
v 0.000000 -0.516366 0.988801
v 0.000000 -0.391609 1.598510
v -0.281312 -0.199222 0.982721
v -0.056259 0.706363 0.411391
v -0.310232 -0.222404 0.459426
v -0.037350 0.285730 -1.800870
v 0.000000 0.639698 -2.122490
v 0.000000 0.011216 -2.031530
v 0.000000 0.391064 1.598120
v 0.000000 0.680787 0.990625
v -0.232674 -0.187100 1.550340
v 0.000000 -0.516366 0.988801
v -0.281312 -0.199222 0.982721
v 0.000000 -0.543338 0.875025
v 0.000000 -0.530849 0.028424
v -0.310232 -0.222404 0.459426
v -0.261594 -0.230379 -0.035983
v 0.000000 -0.483055 -0.239731
v -0.261594 -0.230379 -0.035983
v -0.232674 -0.180532 -0.357367
v -0.033137 -0.245174 -1.824710
v 0.000000 -0.631116 -2.107860
v 0.000000 -0.603739 -1.937440
v -0.160644 0.000786 -0.854242
v 0.000000 0.172922 -1.215850
v -0.096043 -0.035626 -1.278500
v 0.000000 0.031637 2.087610
v 0.000000 0.391064 1.598120
v -0.183379 -0.129469 1.937290
v -0.039416 -0.291502 -0.696740
v 0.000000 -0.614067 -1.087560
v 0.000000 -0.635142 -0.438178
v -0.057111 -0.043246 -1.570980
v 0.000000 0.172922 -1.215850
v 0.000000 0.273707 -1.454250
v -0.183379 -0.129469 1.937290
v 0.000000 -0.391609 1.598510
v 0.000000 -0.242132 1.993620
v 0.000000 -0.342376 -1.506690
v 0.000000 -0.199988 -1.280390
v -0.057111 -0.043246 -1.570980
v 0.000000 -0.530849 0.028424
v -0.261594 -0.230379 -0.035983
v 0.000000 -0.483055 -0.239731
v -0.037350 0.285730 -1.800870
v 0.000000 0.273707 -1.454250
v 0.000000 0.618379 -1.991450
v 0.000000 0.273707 -1.454250
v -0.037350 0.285730 -1.800870
v -0.057111 -0.043246 -1.570980
v 0.000000 -0.120025 2.186320
v 0.000000 0.031637 2.087610
v -0.183379 -0.129469 1.937290
v -0.183379 -0.129469 1.937290
v 0.000000 -0.242132 1.993620
v 0.000000 -0.120025 2.186320
v -0.232674 -0.180532 -0.357367
v -0.044288 0.500405 -0.273722
v -0.036307 0.432787 -0.431442
v -0.033137 -0.245174 -1.824710
v 0.000000 0.011216 -2.031530
v 0.000000 -0.631116 -2.107860
v -0.310232 -0.222404 0.459426
v 0.000000 -0.530849 0.028424
v 0.000000 -0.553693 0.443128
v -0.057111 -0.043246 -1.570980
v -0.033137 -0.245174 -1.824710
v 0.000000 -0.342376 -1.506690
v -0.048199 0.592129 -0.044232
v -0.310232 -0.222404 0.459426
v -0.056259 0.706363 0.411391
v 0.000000 -0.483055 -0.239731
v -0.039416 -0.291502 -0.696740
v 0.000000 -0.635142 -0.438178
v -0.261594 -0.230379 -0.035983
v -0.044288 0.500405 -0.273722
v -0.232674 -0.180532 -0.357367
v 0.000000 -0.199988 -1.280390
v -0.160644 0.000786 -0.854242
v -0.096043 -0.035626 -1.278500
v 0.000000 -0.614067 -1.087560
v -0.039416 -0.291502 -0.696740
v 0.000000 -0.270106 -0.936442
v -0.057111 -0.043246 -1.570980
v -0.037350 0.285730 -1.800870
v 0.000000 0.011216 -2.031530
v 0.000000 0.172922 -1.215850
v -0.160644 0.000786 -0.854242
v 0.000000 0.257893 -0.867717
v -0.039416 -0.291502 -0.696740
v -0.232674 -0.180532 -0.357367
v -0.160644 0.000786 -0.854242
v -0.033137 -0.245174 -1.824710
v -0.057111 -0.043246 -1.570980
v 0.000000 0.011216 -2.031530
v 0.000000 -0.215754 -0.845398
v -0.160644 0.000786 -0.854242
v 0.000000 -0.199988 -1.280390
v -0.183379 -0.129469 1.937290
v 0.000000 0.391064 1.598120
v -0.232674 -0.187100 1.550340
v 0.000000 -0.391609 1.598510
v -0.183379 -0.129469 1.937290
v -0.232674 -0.187100 1.550340
v -0.232674 -0.187100 1.550340
v 0.000000 0.680787 0.990625
v -0.281312 -0.199222 0.982721
v 0.000000 -0.516366 0.988801
v -0.232674 -0.187100 1.550340
v -0.281312 -0.199222 0.982721
v -0.056259 0.706363 0.411391
v -0.281312 -0.199222 0.982721
v 0.000000 0.680787 0.990625
v 0.000000 -0.543338 0.875025
v -0.281312 -0.199222 0.982721
v 0.000000 -0.553693 0.443128
v 0.000000 0.257893 -0.867717
v -0.232674 -0.180532 -0.357367
v -0.036307 0.432787 -0.431442
v 0.000000 0.717324 -0.504547
v 0.000000 0.425873 -1.138400
v 0.000000 0.257893 -0.867717
v -0.036307 0.432787 -0.431442
v 0.000000 0.726664 -0.277148
v 0.000000 0.717324 -0.504547
v -0.036307 0.432787 -0.431442
v -0.044288 0.500405 -0.273722
v 0.000000 0.856097 -0.054511
v 0.000000 0.726664 -0.277148
v -0.044288 0.500405 -0.273722
v -0.048199 0.592129 -0.044232
v 0.000000 1.083460 0.425096
v 0.000000 0.856097 -0.054511
v -0.048199 0.592129 -0.044232
v -0.056259 0.706363 0.411391
v 0.000000 0.896761 0.826160
v 0.000000 1.083460 0.425096
v -0.056259 0.706363 0.411391
v 0.000000 0.680787 0.990625
v -0.676511 0.021367 -0.264389
v -0.247121 -0.319739 0.781487
v -0.314503 -0.103465 0.934848
v -0.247121 -0.319739 0.781487
v -0.676511 0.021367 -0.264389
v -0.318996 -0.370502 0.493586
vn 0.876198 -0.428886 0.219850
vn 0.897899 -0.361904 0.250605
vn 0.897899 -0.361904 0.250605
vn 0.914299 -0.292786 0.279881
vn 0.897899 -0.361904 0.250605
vn 0.897899 -0.361904 0.250605
vn 0.664510 0.747279 -0.000246
vn 0.804923 0.588265 0.077735
vn 0.804923 0.588265 0.077735
vn 0.904219 0.399202 0.151745
vn 0.804923 0.588265 0.077735
vn 0.804923 0.588265 0.077735
vn 0.840593 -0.529465 -0.114324
vn 0.927829 -0.320650 -0.190569
vn 0.983812 -0.069415 -0.165213
vn 0.976493 -0.107348 -0.186919
vn 0.932663 0.352561 -0.076428
vn 0.983812 -0.069415 -0.165213
vn 0.970431 -0.239226 -0.032169
vn 0.953659 -0.287679 0.088176
vn 0.743897 -0.668102 0.016056
vn 0.996927 0.051821 -0.058742
vn 0.986720 0.148498 0.065816
vn 0.996970 0.077666 -0.004222
vn 0.989777 -0.029020 -0.139639
vn 0.999722 -0.013452 -0.019392
vn 0.911778 0.400158 -0.092379
vn 0.967109 -0.227049 -0.114671
vn 0.969206 0.226978 -0.095501
vn 0.971125 0.220011 -0.092262
vn 0.989777 -0.029020 -0.139639
vn 0.892824 -0.449578 -0.027302
vn 0.999722 -0.013452 -0.019392
vn 0.993572 -0.105070 0.042138
vn 0.997350 -0.068253 -0.025192
vn 0.985648 -0.151919 0.073616
vn 0.927829 -0.320650 -0.190569
vn 0.773104 -0.583681 -0.248248
vn 0.976493 -0.107348 -0.186919
vn 0.967109 -0.227049 -0.114671
vn 0.971125 0.220011 -0.092262
vn 0.970431 -0.239226 -0.032169
vn 0.636872 -0.741322 0.211743
vn 0.720313 -0.681825 0.127526
vn 0.966328 -0.213338 0.143867
vn 0.970431 -0.239226 -0.032169
vn 0.975004 0.221613 0.015950
vn 0.953659 -0.287679 0.088176
vn 0.991485 0.000000 -0.130225
vn 0.996927 0.051821 -0.058742
vn 0.996970 0.077666 -0.004222
vn 0.966328 -0.213338 0.143867
vn 0.956652 0.270278 0.108477
vn 0.883595 0.419840 0.207350
vn 0.758138 -0.646484 0.085349
vn 0.953659 -0.287679 0.088176
vn 0.720313 -0.681825 0.127526
vn 0.967109 -0.227049 -0.114671
vn 0.970431 -0.239226 -0.032169
vn 0.737970 -0.670872 -0.073016
vn 0.983812 -0.069415 -0.165213
vn 0.967109 -0.227049 -0.114671
vn 0.840593 -0.529465 -0.114324
vn 0.993572 -0.105070 0.042138
vn 0.997280 -0.040400 -0.061645
vn 0.997350 -0.068253 -0.025192
vn 0.989777 -0.029020 -0.139639
vn 0.911778 0.400158 -0.092379
vn 0.976493 -0.107348 -0.186919
vn 0.839657 0.424710 0.338522
vn 0.883595 0.419840 0.207350
vn 0.767985 0.439367 0.466000
vn 0.995172 -0.094671 0.025884
vn 0.996464 -0.024307 -0.080434
vn 0.927829 -0.320650 -0.190569
vn 0.983303 0.154726 0.095788
vn 0.911778 0.400158 -0.092379
vn 0.999722 -0.013452 -0.019392
vn 0.566182 -0.737410 0.368327
vn 0.636872 -0.741322 0.211743
vn 0.603720 -0.734061 0.310928
vn 0.999722 -0.013452 -0.019392
vn 0.892824 -0.449578 -0.027302
vn 0.985648 -0.151919 0.073616
vn 0.840593 -0.529465 -0.114324
vn 0.967109 -0.227049 -0.114671
vn 0.737970 -0.670872 -0.073016
vn 0.986720 0.148498 0.065816
vn 0.983303 0.154726 0.095788
vn 0.996970 0.077666 -0.004222
vn 0.999722 -0.013452 -0.019392
vn 0.996970 0.077666 -0.004222
vn 0.983303 0.154726 0.095788
vn 0.839657 0.424710 0.338522
vn 0.767985 0.439367 0.466000
vn 0.759141 0.355081 0.545548
vn 0.564210 -0.697405 0.441920
vn 0.566182 -0.737410 0.368327
vn 0.603720 -0.734061 0.310928
vn 0.975139 0.188823 -0.115975
vn 0.969206 0.226978 -0.095501
vn 0.983812 -0.069415 -0.165213
vn 0.997280 -0.040400 -0.061645
vn 0.991485 0.000000 -0.130225
vn 0.997350 -0.068253 -0.025192
vn 0.743897 -0.668102 0.016056
vn 0.737970 -0.670872 -0.073016
vn 0.970431 -0.239226 -0.032169
vn 0.985648 -0.151919 0.073616
vn 0.997350 -0.068253 -0.025192
vn 0.999722 -0.013452 -0.019392
vn 0.975004 0.221613 0.015950
vn 0.970431 -0.239226 -0.032169
vn 0.971125 0.220011 -0.092262
vn 0.995172 -0.094671 0.025884
vn 0.927829 -0.320650 -0.190569
vn 0.840593 -0.529465 -0.114324
vn 0.983812 -0.069415 -0.165213
vn 0.969206 0.226978 -0.095501
vn 0.967109 -0.227049 -0.114671
vn 0.989777 -0.029020 -0.139639
vn 0.976493 -0.107348 -0.186919
vn 0.892824 -0.449578 -0.027302
vn 0.985392 0.068503 -0.155918
vn 0.927829 -0.320650 -0.190569
vn 0.996464 -0.024307 -0.080434
vn 0.991485 0.000000 -0.130225
vn 0.996970 0.077666 -0.004222
vn 0.999722 -0.013452 -0.019392
vn 0.932663 0.352561 -0.076428
vn 0.976493 -0.107348 -0.186919
vn 0.911778 0.400158 -0.092379
vn 0.976493 -0.107348 -0.186919
vn 0.983812 -0.069415 -0.165213
vn 0.927829 -0.320650 -0.190569
vn 0.991485 0.000000 -0.130225
vn 0.999722 -0.013452 -0.019392
vn 0.997350 -0.068253 -0.025192
vn 0.892824 -0.449578 -0.027302
vn 0.976493 -0.107348 -0.186919
vn 0.773104 -0.583681 -0.248248
vn 0.966328 -0.213338 0.143867
vn 0.883595 0.419840 0.207350
vn 0.839657 0.424710 0.338522
vn 0.966328 -0.213338 0.143867
vn 0.603720 -0.734061 0.310928
vn 0.636872 -0.741322 0.211743
vn 0.953659 -0.287679 0.088176
vn 0.956652 0.270278 0.108477
vn 0.966328 -0.213338 0.143867
vn 0.953659 -0.287679 0.088176
vn 0.966328 -0.213338 0.143867
vn 0.720313 -0.681825 0.127526
vn 0.956652 0.270278 0.108477
vn 0.953659 -0.287679 0.088176
vn 0.975004 0.221613 0.015950
vn 0.743897 -0.668102 0.016056
vn 0.953659 -0.287679 0.088176
vn 0.758138 -0.646484 0.085349
vn 0.975139 0.188823 -0.115975
vn 0.983812 -0.069415 -0.165213
vn 0.932663 0.352561 -0.076428
vn 0.975139 0.188823 -0.115975
vn 0.932663 0.352561 -0.076428
vn 0.997831 0.040824 -0.051645
vn 0.994200 0.094716 -0.050951
vn 0.969206 0.226978 -0.095501
vn 0.975139 0.188823 -0.115975
vn 0.994200 0.094716 -0.050951
vn 0.983499 0.165176 -0.073800
vn 0.971125 0.220011 -0.092262
vn 0.969206 0.226978 -0.095501
vn 0.983499 0.165176 -0.073800
vn 0.981759 0.171373 -0.082340
vn 0.975004 0.221613 0.015950
vn 0.971125 0.220011 -0.092262
vn 0.981759 0.171373 -0.082340
vn 0.990384 0.138160 0.007235
vn 0.956652 0.270278 0.108477
vn 0.975004 0.221613 0.015950
vn 0.990384 0.138160 0.007235
vn 0.990042 0.114671 0.081649
vn -0.804923 0.588265 0.077735
vn -0.804923 0.588265 0.077735
vn -0.664510 0.747279 -0.000246
vn -0.804923 0.588265 0.077735
vn -0.804923 0.588265 0.077735
vn -0.904219 0.399202 0.151745
vn -0.983812 -0.069415 -0.165213
vn -0.927829 -0.320650 -0.190569
vn -0.840593 -0.529465 -0.114324
vn -0.983812 -0.069415 -0.165213
vn -0.932663 0.352561 -0.076428
vn -0.976493 -0.107348 -0.186919
vn -0.743897 -0.668102 0.016056
vn -0.953659 -0.287679 0.088176
vn -0.970431 -0.239226 -0.032169
vn -0.996970 0.077666 -0.004222
vn -0.986720 0.148498 0.065816
vn -0.996927 0.051821 -0.058742
vn -0.911778 0.400158 -0.092379
vn -0.999722 -0.013452 -0.019392
vn -0.989777 -0.029020 -0.139639
vn -0.971125 0.220011 -0.092262
vn -0.969206 0.226978 -0.095501
vn -0.967109 -0.227049 -0.114671
vn -0.999722 -0.013452 -0.019392
vn -0.892824 -0.449578 -0.027302
vn -0.989777 -0.029020 -0.139639
vn -0.985648 -0.151919 0.073616
vn -0.997350 -0.068253 -0.025192
vn -0.993572 -0.105070 0.042138
vn -0.976493 -0.107348 -0.186919
vn -0.773104 -0.583681 -0.248248
vn -0.927829 -0.320650 -0.190569
vn -0.970431 -0.239226 -0.032169
vn -0.971125 0.220011 -0.092262
vn -0.967109 -0.227049 -0.114671
vn -0.966328 -0.213338 0.143867
vn -0.720313 -0.681825 0.127526
vn -0.636872 -0.741322 0.211743
vn -0.953659 -0.287679 0.088176
vn -0.975004 0.221613 0.015950
vn -0.970431 -0.239226 -0.032169
vn -0.996970 0.077666 -0.004222
vn -0.996927 0.051821 -0.058742
vn -0.991485 0.000000 -0.130225
vn -0.883595 0.419840 0.207350
vn -0.956652 0.270278 0.108477
vn -0.966328 -0.213338 0.143867
vn -0.720313 -0.681825 0.127526
vn -0.953659 -0.287679 0.088176
vn -0.758138 -0.646484 0.085349
vn -0.737970 -0.670872 -0.073016
vn -0.970431 -0.239226 -0.032169
vn -0.967109 -0.227049 -0.114671
vn -0.840593 -0.529465 -0.114324
vn -0.967109 -0.227049 -0.114671
vn -0.983812 -0.069415 -0.165213
vn -0.997350 -0.068253 -0.025192
vn -0.997280 -0.040400 -0.061645
vn -0.993572 -0.105070 0.042138
vn -0.976493 -0.107348 -0.186919
vn -0.911778 0.400158 -0.092379
vn -0.989777 -0.029020 -0.139639
vn -0.767985 0.439367 0.466000
vn -0.883595 0.419840 0.207350
vn -0.839657 0.424710 0.338522
vn -0.927829 -0.320650 -0.190569
vn -0.996464 -0.024307 -0.080434
vn -0.995172 -0.094671 0.025884
vn -0.999722 -0.013452 -0.019392
vn -0.911778 0.400158 -0.092379
vn -0.983303 0.154726 0.095788
vn -0.603720 -0.734061 0.310928
vn -0.636872 -0.741322 0.211743
vn -0.566182 -0.737410 0.368327
vn -0.985648 -0.151919 0.073616
vn -0.892824 -0.449578 -0.027302
vn -0.999722 -0.013452 -0.019392
vn -0.737970 -0.670872 -0.073016
vn -0.967109 -0.227049 -0.114671
vn -0.840593 -0.529465 -0.114324
vn -0.996970 0.077666 -0.004222
vn -0.983303 0.154726 0.095788
vn -0.986720 0.148498 0.065816
vn -0.983303 0.154726 0.095788
vn -0.996970 0.077666 -0.004222
vn -0.999722 -0.013452 -0.019392
vn -0.759141 0.355081 0.545548
vn -0.767985 0.439367 0.466000
vn -0.839657 0.424710 0.338522
vn -0.603720 -0.734061 0.310928
vn -0.566182 -0.737410 0.368327
vn -0.564210 -0.697405 0.441920
vn -0.983812 -0.069415 -0.165213
vn -0.969206 0.226978 -0.095501
vn -0.975139 0.188823 -0.115975
vn -0.997350 -0.068253 -0.025192
vn -0.991485 0.000000 -0.130225
vn -0.997280 -0.040400 -0.061645
vn -0.970431 -0.239226 -0.032169
vn -0.737970 -0.670872 -0.073016
vn -0.743897 -0.668102 0.016056
vn -0.999722 -0.013452 -0.019392
vn -0.997350 -0.068253 -0.025192
vn -0.985648 -0.151919 0.073616
vn -0.971125 0.220011 -0.092262
vn -0.970431 -0.239226 -0.032169
vn -0.975004 0.221613 0.015950
vn -0.840593 -0.529465 -0.114324
vn -0.927829 -0.320650 -0.190569
vn -0.995172 -0.094671 0.025884
vn -0.967109 -0.227049 -0.114671
vn -0.969206 0.226978 -0.095501
vn -0.983812 -0.069415 -0.165213
vn -0.892824 -0.449578 -0.027302
vn -0.976493 -0.107348 -0.186919
vn -0.989777 -0.029020 -0.139639
vn -0.996464 -0.024307 -0.080434
vn -0.927829 -0.320650 -0.190569
vn -0.985392 0.068503 -0.155918
vn -0.999722 -0.013452 -0.019392
vn -0.996970 0.077666 -0.004222
vn -0.991485 0.000000 -0.130225
vn -0.911778 0.400158 -0.092379
vn -0.976493 -0.107348 -0.186919
vn -0.932663 0.352561 -0.076428
vn -0.927829 -0.320650 -0.190569
vn -0.983812 -0.069415 -0.165213
vn -0.976493 -0.107348 -0.186919
vn -0.997350 -0.068253 -0.025192
vn -0.999722 -0.013452 -0.019392
vn -0.991485 0.000000 -0.130225
vn -0.773104 -0.583681 -0.248248
vn -0.976493 -0.107348 -0.186919
vn -0.892824 -0.449578 -0.027302
vn -0.839657 0.424710 0.338522
vn -0.883595 0.419840 0.207350
vn -0.966328 -0.213338 0.143867
vn -0.636872 -0.741322 0.211743
vn -0.603720 -0.734061 0.310928
vn -0.966328 -0.213338 0.143867
vn -0.966328 -0.213338 0.143867
vn -0.956652 0.270278 0.108477
vn -0.953659 -0.287679 0.088176
vn -0.720313 -0.681825 0.127526
vn -0.966328 -0.213338 0.143867
vn -0.953659 -0.287679 0.088176
vn -0.975004 0.221613 0.015950
vn -0.953659 -0.287679 0.088176
vn -0.956652 0.270278 0.108477
vn -0.758138 -0.646484 0.085349
vn -0.953659 -0.287679 0.088176
vn -0.743897 -0.668102 0.016056
vn -0.932663 0.352561 -0.076428
vn -0.983812 -0.069415 -0.165213
vn -0.975139 0.188823 -0.115975
vn -0.994200 0.094716 -0.050951
vn -0.997831 0.040824 -0.051645
vn -0.932663 0.352561 -0.076428
vn -0.975139 0.188823 -0.115975
vn -0.983499 0.165176 -0.073800
vn -0.994200 0.094716 -0.050951
vn -0.975139 0.188823 -0.115975
vn -0.969206 0.226978 -0.095501
vn -0.981759 0.171373 -0.082340
vn -0.983499 0.165176 -0.073800
vn -0.969206 0.226978 -0.095501
vn -0.971125 0.220011 -0.092262
vn -0.990384 0.138160 0.007235
vn -0.981759 0.171373 -0.082340
vn -0.971125 0.220011 -0.092262
vn -0.975004 0.221613 0.015950
vn -0.990042 0.114671 0.081649
vn -0.990384 0.138160 0.007235
vn -0.975004 0.221613 0.015950
vn -0.956652 0.270278 0.108477
vn -0.897899 -0.361904 0.250605
vn -0.897899 -0.361904 0.250605
vn -0.876198 -0.428886 0.219850
vn -0.897899 -0.361904 0.250605
vn -0.897899 -0.361904 0.250605
vn -0.914299 -0.292786 0.279881
vt 0.026523 0.869300
vt 0.061941 0.769405
vt 0.266921 0.931680
vt 0.128430 0.745958
vt 0.266921 0.931680
vt 0.061941 0.769405
vt 0.350779 0.249304
vt 0.302000 0.249337
vt 0.399517 0.200366
vt 0.393288 0.001490
vt 0.399517 0.200366
vt 0.302000 0.249337
vt 0.553698 0.277096
vt 0.656885 0.365305
vt 0.580259 0.416406
vt 0.692447 0.499902
vt 0.695489 0.618297
vt 0.580259 0.416406
vt 0.395837 0.397124
vt 0.277684 0.407799
vt 0.399517 0.244568
vt 0.978801 0.794116
vt 0.949214 0.784299
vt 0.906184 0.631116
vt 0.788240 0.483134
vt 0.854277 0.479625
vt 0.774094 0.579169
vt 0.507694 0.393452
vt 0.561373 0.729973
vt 0.509557 0.772211
vt 0.788240 0.483134
vt 0.788664 0.407447
vt 0.854277 0.479625
vt 0.937018 0.221522
vt 0.911565 0.386639
vt 0.839761 0.341878
vt 0.656885 0.365305
vt 0.690450 0.400187
vt 0.692447 0.499902
vt 0.507694 0.393452
vt 0.509557 0.772211
vt 0.395837 0.397124
vt 0.138647 0.319207
vt 0.276311 0.261757
vt 0.149523 0.413382
vt 0.395837 0.397124
vt 0.406683 0.824815
vt 0.277684 0.407799
vt 0.958263 0.504705
vt 0.978801 0.794116
vt 0.906184 0.631116
vt 0.149523 0.413382
vt 0.275899 0.813037
vt 0.138734 0.679622
vt 0.302000 0.249337
vt 0.277684 0.407799
vt 0.276311 0.261757
vt 0.507694 0.393452
vt 0.395837 0.397124
vt 0.493152 0.255088
vt 0.580259 0.416406
vt 0.507694 0.393452
vt 0.553698 0.277096
vt 0.937018 0.221522
vt 0.975497 0.208915
vt 0.911565 0.386639
vt 0.788240 0.483134
vt 0.774094 0.579169
vt 0.692447 0.499902
vt 0.062154 0.439920
vt 0.138734 0.679622
vt 0.028215 0.514108
vt 0.598505 0.207062
vt 0.745127 0.216766
vt 0.656885 0.365305
vt 0.827921 0.625580
vt 0.774094 0.579169
vt 0.854277 0.479625
vt 0.049436 0.388040
vt 0.138647 0.319207
vt 0.062154 0.439920
vt 0.854277 0.479625
vt 0.788664 0.407447
vt 0.839761 0.341878
vt 0.553698 0.277096
vt 0.507694 0.393452
vt 0.493152 0.255088
vt 0.949214 0.784299
vt 0.827921 0.625580
vt 0.906184 0.631116
vt 0.854277 0.479625
vt 0.906184 0.631116
vt 0.827921 0.625580
vt 0.062154 0.439920
vt 0.028215 0.514108
vt 0.005927 0.444269
vt 0.005927 0.444269
vt 0.049436 0.388040
vt 0.062154 0.439920
vt 0.596984 0.698835
vt 0.561373 0.729973
vt 0.580259 0.416406
vt 0.975497 0.208915
vt 0.958263 0.504705
vt 0.911565 0.386639
vt 0.399517 0.244568
vt 0.493152 0.255088
vt 0.395837 0.397124
vt 0.839761 0.341878
vt 0.911565 0.386639
vt 0.854277 0.479625
vt 0.406683 0.824815
vt 0.395837 0.397124
vt 0.509557 0.772211
vt 0.598505 0.207062
vt 0.656885 0.365305
vt 0.553698 0.277096
vt 0.580259 0.416406
vt 0.561373 0.729973
vt 0.507694 0.393452
vt 0.788240 0.483134
vt 0.692447 0.499902
vt 0.788664 0.407447
vt 0.711007 0.375158
vt 0.656885 0.365305
vt 0.745127 0.216766
vt 0.958263 0.504705
vt 0.906184 0.631116
vt 0.854277 0.479625
vt 0.695489 0.618297
vt 0.692447 0.499902
vt 0.774094 0.579169
vt 0.692447 0.499902
vt 0.580259 0.416406
vt 0.656885 0.365305
vt 0.958263 0.504705
vt 0.854277 0.479625
vt 0.911565 0.386639
vt 0.788664 0.407447
vt 0.692447 0.499902
vt 0.690450 0.400187
vt 0.149523 0.413382
vt 0.138734 0.679622
vt 0.062154 0.439920
vt 0.149523 0.413382
vt 0.062154 0.439920
vt 0.138647 0.319207
vt 0.277684 0.407799
vt 0.275899 0.813037
vt 0.149523 0.413382
vt 0.277684 0.407799
vt 0.149523 0.413382
vt 0.276311 0.261757
vt 0.275899 0.813037
vt 0.277684 0.407799
vt 0.406683 0.824815
vt 0.399517 0.244568
vt 0.277684 0.407799
vt 0.302000 0.249337
vt 0.596984 0.698835
vt 0.580259 0.416406
vt 0.695489 0.618297
vt 0.596984 0.698835
vt 0.695489 0.618297
vt 0.756605 0.695651
vt 0.613490 0.829862
vt 0.561373 0.729973
vt 0.596984 0.698835
vt 0.613490 0.829862
vt 0.562146 0.834163
vt 0.509557 0.772211
vt 0.561373 0.729973
vt 0.562146 0.834163
vt 0.511878 0.893766
vt 0.406683 0.824815
vt 0.509557 0.772211
vt 0.511878 0.893766
vt 0.403588 0.998465
vt 0.275899 0.813037
vt 0.406683 0.824815
vt 0.403588 0.998465
vt 0.313033 0.912491
vt 0.399517 0.200366
vt 0.302000 0.249337
vt 0.350779 0.249304
vt 0.302000 0.249337
vt 0.399517 0.200366
vt 0.393288 0.001490
vt 0.580259 0.416406
vt 0.656885 0.365305
vt 0.553698 0.277096
vt 0.580259 0.416406
vt 0.695489 0.618297
vt 0.692447 0.499902
vt 0.399517 0.244568
vt 0.277684 0.407799
vt 0.395837 0.397124
vt 0.906184 0.631116
vt 0.949214 0.784299
vt 0.978801 0.794116
vt 0.774094 0.579169
vt 0.854277 0.479625
vt 0.788240 0.483134
vt 0.509557 0.772211
vt 0.561373 0.729973
vt 0.507694 0.393452
vt 0.854277 0.479625
vt 0.788664 0.407447
vt 0.788240 0.483134
vt 0.839761 0.341878
vt 0.911565 0.386639
vt 0.937018 0.221522
vt 0.692447 0.499902
vt 0.690450 0.400187
vt 0.656885 0.365305
vt 0.395837 0.397124
vt 0.509557 0.772211
vt 0.507694 0.393452
vt 0.149523 0.413382
vt 0.276311 0.261757
vt 0.138647 0.319207
vt 0.277684 0.407799
vt 0.406683 0.824815
vt 0.395837 0.397124
vt 0.906184 0.631116
vt 0.978801 0.794116
vt 0.958263 0.504705
vt 0.138734 0.679622
vt 0.275899 0.813037
vt 0.149523 0.413382
vt 0.276311 0.261757
vt 0.277684 0.407799
vt 0.302000 0.249337
vt 0.493152 0.255088
vt 0.395837 0.397124
vt 0.507694 0.393452
vt 0.553698 0.277096
vt 0.507694 0.393452
vt 0.580259 0.416406
vt 0.911565 0.386639
vt 0.975497 0.208915
vt 0.937018 0.221522
vt 0.692447 0.499902
vt 0.774094 0.579169
vt 0.788240 0.483134
vt 0.028215 0.514108
vt 0.138734 0.679622
vt 0.062154 0.439920
vt 0.656885 0.365305
vt 0.745127 0.216766
vt 0.598505 0.207062
vt 0.854277 0.479625
vt 0.774094 0.579169
vt 0.827921 0.625580
vt 0.062154 0.439920
vt 0.138647 0.319207
vt 0.049436 0.388040
vt 0.839761 0.341878
vt 0.788664 0.407447
vt 0.854277 0.479625
vt 0.493152 0.255088
vt 0.507694 0.393452
vt 0.553698 0.277096
vt 0.906184 0.631116
vt 0.827921 0.625580
vt 0.949214 0.784299
vt 0.827921 0.625580
vt 0.906184 0.631116
vt 0.854277 0.479625
vt 0.005927 0.444269
vt 0.028215 0.514108
vt 0.062154 0.439920
vt 0.062154 0.439920
vt 0.049436 0.388040
vt 0.005927 0.444269
vt 0.580259 0.416406
vt 0.561373 0.729973
vt 0.596984 0.698835
vt 0.911565 0.386639
vt 0.958263 0.504705
vt 0.975497 0.208915
vt 0.395837 0.397124
vt 0.493152 0.255088
vt 0.399517 0.244568
vt 0.854277 0.479625
vt 0.911565 0.386639
vt 0.839761 0.341878
vt 0.509557 0.772211
vt 0.395837 0.397124
vt 0.406683 0.824815
vt 0.553698 0.277096
vt 0.656885 0.365305
vt 0.598505 0.207062
vt 0.507694 0.393452
vt 0.561373 0.729973
vt 0.580259 0.416406
vt 0.788664 0.407447
vt 0.692447 0.499902
vt 0.788240 0.483134
vt 0.745127 0.216766
vt 0.656885 0.365305
vt 0.711007 0.375158
vt 0.854277 0.479625
vt 0.906184 0.631116
vt 0.958263 0.504705
vt 0.774094 0.579169
vt 0.692447 0.499902
vt 0.695489 0.618297
vt 0.656885 0.365305
vt 0.580259 0.416406
vt 0.692447 0.499902
vt 0.911565 0.386639
vt 0.854277 0.479625
vt 0.958263 0.504705
vt 0.690450 0.400187
vt 0.692447 0.499902
vt 0.788664 0.407447
vt 0.062154 0.439920
vt 0.138734 0.679622
vt 0.149523 0.413382
vt 0.138647 0.319207
vt 0.062154 0.439920
vt 0.149523 0.413382
vt 0.149523 0.413382
vt 0.275899 0.813037
vt 0.277684 0.407799
vt 0.276311 0.261757
vt 0.149523 0.413382
vt 0.277684 0.407799
vt 0.406683 0.824815
vt 0.277684 0.407799
vt 0.275899 0.813037
vt 0.302000 0.249337
vt 0.277684 0.407799
vt 0.399517 0.244568
vt 0.695489 0.618297
vt 0.580259 0.416406
vt 0.596984 0.698835
vt 0.613490 0.829862
vt 0.756605 0.695651
vt 0.695489 0.618297
vt 0.596984 0.698835
vt 0.562146 0.834163
vt 0.613490 0.829862
vt 0.596984 0.698835
vt 0.561373 0.729973
vt 0.511878 0.893766
vt 0.562146 0.834163
vt 0.561373 0.729973
vt 0.509557 0.772211
vt 0.403588 0.998465
vt 0.511878 0.893766
vt 0.509557 0.772211
vt 0.406683 0.824815
vt 0.313033 0.912491
vt 0.403588 0.998465
vt 0.406683 0.824815
vt 0.275899 0.813037
vt 0.266921 0.931680
vt 0.061941 0.769405
vt 0.026523 0.869300
vt 0.061941 0.769405
vt 0.266921 0.931680
vt 0.128430 0.745958
f 1/1/1 2/2/2 3/3/3
f 4/4/4 5/5/5 6/6/6
f 7/7/7 8/8/8 9/9/9
f 10/10/10 11/11/11 12/12/12
f 13/13/13 14/14/14 15/15/15
f 16/16/16 17/17/17 18/18/18
f 19/19/19 20/20/20 21/21/21
f 22/22/22 23/23/23 24/24/24
f 25/25/25 26/26/26 27/27/27
f 28/28/28 29/29/29 30/30/30
f 31/31/31 32/32/32 33/33/33
f 34/34/34 35/35/35 36/36/36
f 37/37/37 38/38/38 39/39/39
f 40/40/40 41/41/41 42/42/42
f 43/43/43 44/44/44 45/45/45
f 46/46/46 47/47/47 48/48/48
f 49/49/49 50/50/50 51/51/51
f 52/52/52 53/53/53 54/54/54
f 55/55/55 56/56/56 57/57/57
f 58/58/58 59/59/59 60/60/60
f 61/61/61 62/62/62 63/63/63
f 64/64/64 65/65/65 66/66/66
f 67/67/67 68/68/68 69/69/69
f 70/70/70 71/71/71 72/72/72
f 73/73/73 74/74/74 75/75/75
f 76/76/76 77/77/77 78/78/78
f 79/79/79 80/80/80 81/81/81
f 82/82/82 83/83/83 84/84/84
f 85/85/85 86/86/86 87/87/87
f 88/88/88 89/89/89 90/90/90
f 91/91/91 92/92/92 93/93/93
f 94/94/94 95/95/95 96/96/96
f 97/97/97 98/98/98 99/99/99
f 100/100/100 101/101/101 102/102/102
f 103/103/103 104/104/104 105/105/105
f 106/106/106 107/107/107 108/108/108
f 109/109/109 110/110/110 111/111/111
f 112/112/112 113/113/113 114/114/114
f 115/115/115 116/116/116 117/117/117
f 118/118/118 119/119/119 120/120/120
f 121/121/121 122/122/122 123/123/123
f 124/124/124 125/125/125 126/126/126
f 127/127/127 128/128/128 129/129/129
f 130/130/130 131/131/131 132/132/132
f 133/133/133 134/134/134 135/135/135
f 136/136/136 137/137/137 138/138/138
f 139/139/139 140/140/140 141/141/141
f 142/142/142 143/143/143 144/144/144
f 145/145/145 146/146/146 147/147/147
f 148/148/148 149/149/149 150/150/150
f 151/151/151 152/152/152 153/153/153
f 154/154/154 155/155/155 156/156/156
f 157/157/157 158/158/158 159/159/159
f 160/160/160 161/161/161 162/162/162
f 163/163/163 164/164/164 165/165/165
f 163/163/163 165/165/165 166/166/166
f 167/167/167 168/168/168 169/169/169
f 167/167/167 169/169/169 170/170/170
f 171/171/171 172/172/172 173/173/173
f 171/171/171 173/173/173 174/174/174
f 175/175/175 176/176/176 177/177/177
f 175/175/175 177/177/177 178/178/178
f 179/179/179 180/180/180 181/181/181
f 179/179/179 181/181/181 182/182/182
f 183/183/183 184/184/184 185/185/185
f 186/186/186 187/187/187 188/188/188
f 189/189/189 190/190/190 191/191/191
f 192/192/192 193/193/193 194/194/194
f 195/195/195 196/196/196 197/197/197
f 198/198/198 199/199/199 200/200/200
f 201/201/201 202/202/202 203/203/203
f 204/204/204 205/205/205 206/206/206
f 207/207/207 208/208/208 209/209/209
f 210/210/210 211/211/211 212/212/212
f 213/213/213 214/214/214 215/215/215
f 216/216/216 217/217/217 218/218/218
f 219/219/219 220/220/220 221/221/221
f 222/222/222 223/223/223 224/224/224
f 225/225/225 226/226/226 227/227/227
f 228/228/228 229/229/229 230/230/230
f 231/231/231 232/232/232 233/233/233
f 234/234/234 235/235/235 236/236/236
f 237/237/237 238/238/238 239/239/239
f 240/240/240 241/241/241 242/242/242
f 243/243/243 244/244/244 245/245/245
f 246/246/246 247/247/247 248/248/248
f 249/249/249 250/250/250 251/251/251
f 252/252/252 253/253/253 254/254/254
f 255/255/255 256/256/256 257/257/257
f 258/258/258 259/259/259 260/260/260
f 261/261/261 262/262/262 263/263/263
f 264/264/264 265/265/265 266/266/266
f 267/267/267 268/268/268 269/269/269
f 270/270/270 271/271/271 272/272/272
f 273/273/273 274/274/274 275/275/275
f 276/276/276 277/277/277 278/278/278
f 279/279/279 280/280/280 281/281/281
f 282/282/282 283/283/283 284/284/284
f 285/285/285 286/286/286 287/287/287
f 288/288/288 289/289/289 290/290/290
f 291/291/291 292/292/292 293/293/293
f 294/294/294 295/295/295 296/296/296
f 297/297/297 298/298/298 299/299/299
f 300/300/300 301/301/301 302/302/302
f 303/303/303 304/304/304 305/305/305
f 306/306/306 307/307/307 308/308/308
f 309/309/309 310/310/310 311/311/311
f 312/312/312 313/313/313 314/314/314
f 315/315/315 316/316/316 317/317/317
f 318/318/318 319/319/319 320/320/320
f 321/321/321 322/322/322 323/323/323
f 324/324/324 325/325/325 326/326/326
f 327/327/327 328/328/328 329/329/329
f 330/330/330 331/331/331 332/332/332
f 333/333/333 334/334/334 335/335/335
f 336/336/336 337/337/337 338/338/338
f 339/339/339 340/340/340 341/341/341
f 339/339/339 341/341/341 342/342/342
f 343/343/343 344/344/344 345/345/345
f 343/343/343 345/345/345 346/346/346
f 347/347/347 348/348/348 349/349/349
f 347/347/347 349/349/349 350/350/350
f 351/351/351 352/352/352 353/353/353
f 351/351/351 353/353/353 354/354/354
f 355/355/355 356/356/356 357/357/357
f 355/355/355 357/357/357 358/358/358
f 359/359/359 360/360/360 361/361/361
f 362/362/362 363/363/363 364/364/364