# MediumFishA (Khronos Aquarium)
# textures: {"normalMap":"MediumFishA_NM.png","diffuse":"MediumFishA_DM.jpg"}
v 0.077620 -0.029144 -2.823230
v 0.000000 -0.141923 -2.819260
v 0.000000 0.000348 -3.335000
v 0.077620 -0.029144 -2.823230
v 0.201665 -0.288417 -1.742390
v 0.000000 -0.141923 -2.819260
v 0.000000 -0.141923 -2.819260
v 0.201665 -0.288417 -1.742390
v 0.000000 -0.464645 -1.738150
v 0.201665 -0.288417 -1.742390
v 0.352697 -0.527400 -0.627079
v 0.000000 -0.464645 -1.738150
v 0.000000 -0.464645 -1.738150
v 0.352697 -0.527400 -0.627079
v 0.000000 -0.816721 -0.658996
v 0.352697 -0.527400 -0.627079
v 0.415658 -0.644912 0.485764
v 0.000000 -0.816721 -0.658996
v 0.000000 -0.816721 -0.658996
v 0.415658 -0.644912 0.485764
v 0.000000 -0.954628 0.486827
v 0.000000 -0.954628 0.486827
v 0.415658 -0.644912 0.485764
v 0.000000 -0.864446 1.546360
v 0.000000 -0.864446 1.546360
v 0.415658 -0.644912 0.485764
v 0.375511 -0.569864 1.556720
v 0.000000 -0.864446 1.546360
v 0.375511 -0.569864 1.556720
v 0.000000 -0.649865 2.701080
v 0.000000 -0.649865 2.701080
v 0.375511 -0.569864 1.556720
v 0.288929 -0.507156 2.711250
v 0.000000 -0.649865 2.701080
v 0.288929 -0.507156 2.711250
v 0.000000 -0.347862 3.348740
v 0.000000 -0.347862 3.348740
v 0.288929 -0.507156 2.711250
v 0.125794 -0.251465 3.336330
v 0.000000 0.028329 3.650680
v 0.000000 -0.347862 3.348740
v 0.085182 -0.004407 3.558720
v 0.085182 -0.004407 3.558720
v 0.000000 -0.347862 3.348740
v 0.125794 -0.251465 3.336330
v 0.125794 -0.251465 3.336330
v 0.176808 -0.103179 3.299870
v 0.085182 -0.004407 3.558720
v 0.077620 -0.029144 -2.823230
v 0.263654 -0.073073 -1.753480
v 0.201665 -0.288417 -1.742390
v 0.263654 -0.073073 -1.753480
v 0.464318 -0.118902 -0.617108
v 0.201665 -0.288417 -1.742390
v 0.201665 -0.288417 -1.742390
v 0.464318 -0.118902 -0.617108
v 0.352697 -0.527400 -0.627079
v 0.464318 -0.118902 -0.617108
v 0.569104 -0.155669 0.500030
v 0.352697 -0.527400 -0.627079
v 0.352697 -0.527400 -0.627079
v 0.569104 -0.155669 0.500030
v 0.415658 -0.644912 0.485764
v 0.415658 -0.644912 0.485764
v 0.569104 -0.155669 0.500030
v 0.375511 -0.569864 1.556720
v 0.375511 -0.569864 1.556720
v 0.569104 -0.155669 0.500030
v 0.525119 -0.138516 1.558870
v 0.525119 -0.138516 1.558870
v 0.404695 -0.118710 2.702500
v 0.375511 -0.569864 1.556720
v 0.375511 -0.569864 1.556720
v 0.404695 -0.118710 2.702500
v 0.288929 -0.507156 2.711250
v 0.288929 -0.507156 2.711250
v 0.404695 -0.118710 2.702500
v 0.125794 -0.251465 3.336330
v 0.125794 -0.251465 3.336330
v 0.404695 -0.118710 2.702500
v 0.176808 -0.103179 3.299870
v 0.037501 0.806737 0.516907
v 0.028072 1.109930 0.919705
v 0.000000 0.768966 1.425230
v 0.008046 0.081330 -2.816440
v 0.189649 0.190975 -1.752500
v 0.077620 -0.029144 -2.823230
v 0.077620 -0.029144 -2.823230
v 0.189649 0.190975 -1.752500
v 0.263654 -0.073073 -1.753480
v 0.000000 0.000348 -3.335000
v 0.008046 0.081330 -2.816440
v 0.077620 -0.029144 -2.823230
v 0.263654 -0.073073 -1.753480
v 0.189649 0.190975 -1.752500
v 0.464318 -0.118902 -0.617108
v 0.464318 -0.118902 -0.617108
v 0.189649 0.190975 -1.752500
v 0.346567 0.400286 -0.595003
v 0.464318 -0.118902 -0.617108
v 0.346567 0.400286 -0.595003
v 0.569104 -0.155669 0.500030
v 0.569104 -0.155669 0.500030
v 0.346567 0.400286 -0.595003
v 0.408605 0.485442 0.499873
v 0.408605 0.485442 0.499873
v 0.389869 0.466857 1.488120
v 0.569104 -0.155669 0.500030
v 0.569104 -0.155669 0.500030
v 0.389869 0.466857 1.488120
v 0.525119 -0.138516 1.558870
v 0.389869 0.466857 1.488120
v 0.315388 0.322124 2.723420
v 0.525119 -0.138516 1.558870
v 0.525119 -0.138516 1.558870
v 0.315388 0.322124 2.723420
v 0.404695 -0.118710 2.702500
v 0.404695 -0.118710 2.702500
v 0.315388 0.322124 2.723420
v 0.176808 -0.103179 3.299870
v 0.176808 -0.103179 3.299870
v 0.315388 0.322124 2.723420
v 0.147963 0.137095 3.369050
v 0.176808 -0.103179 3.299870
v 0.078168 0.054486 3.549690
v 0.085182 -0.004407 3.558720
v 0.000000 0.368258 -1.730310
v 0.189649 0.190975 -1.752500
v 0.008046 0.081330 -2.816440
v 0.000000 0.768966 1.425230
v 0.028072 1.109930 0.919705
v 0.000000 1.667380 0.968175
v 0.189649 0.190975 -1.752500
v 0.000000 0.368258 -1.730310
v 0.346567 0.400286 -0.595003
v 0.346567 0.400286 -0.595003
v 0.000000 0.368258 -1.730310
v 0.000000 0.719462 -0.589677
v 0.346567 0.400286 -0.595003
v 0.000000 0.719462 -0.589677
v 0.408605 0.485442 0.499873
v 0.408605 0.485442 0.499873
v 0.000000 0.719462 -0.589677
v 0.037501 0.806737 0.516907
v 0.037501 0.806737 0.516907
v 0.000000 0.768966 1.425230
v 0.408605 0.485442 0.499873
v 0.408605 0.485442 0.499873
v 0.000000 0.768966 1.425230
v 0.389869 0.466857 1.488120
v 0.000000 0.768966 1.425230
v 0.000000 0.491051 2.734640
v 0.389869 0.466857 1.488120
v 0.389869 0.466857 1.488120
v 0.000000 0.491051 2.734640
v 0.315388 0.322124 2.723420
v 0.315388 0.322124 2.723420
v 0.000000 0.491051 2.734640
v 0.147963 0.137095 3.369050
v 0.147963 0.137095 3.369050
v 0.000000 0.491051 2.734640
v 0.000000 0.219785 3.390620
v 0.147963 0.137095 3.369050
v 0.000000 0.219785 3.390620
v 0.078168 0.054486 3.549690
v 0.078168 0.054486 3.549690
v 0.000000 0.219785 3.390620
v 0.000000 0.096186 3.614370
v 0.037501 0.806737 0.516907
v 0.000000 0.815451 -0.377710
v -0.001343 0.948149 0.506514
v 0.147963 0.137095 3.369050
v 0.078168 0.054486 3.549690
v 0.176808 -0.103179 3.299870
v 0.000000 0.096186 3.614370
v 0.000000 0.028329 3.650680
v 0.078168 0.054486 3.549690
v 0.078168 0.054486 3.549690
v 0.000000 0.028329 3.650680
v 0.085182 -0.004407 3.558720
v 0.020348 0.710557 -0.569983
v 0.000000 0.795616 -0.871537
v 0.000000 1.201700 -0.908833
v 0.000000 0.477977 -1.325830
v 0.000000 0.795616 -0.871537
v 0.020348 0.710557 -0.569983
v 0.027391 -0.716095 -0.891744
v 0.000000 -0.792346 -1.300990
v 0.000000 -1.194110 -1.303540
v 0.000000 -0.459796 -1.740980
v 0.000000 -0.792346 -1.300990
v 0.027391 -0.716095 -0.891744
v 0.027391 -0.820105 1.601840
v 0.000000 -1.450830 1.276690
v 0.000000 -1.563570 1.368410
v 0.000000 -0.877515 1.133450
v 0.000000 -1.450830 1.276690
v 0.027391 -0.820105 1.601840
v 0.673616 0.082525 1.530340
v 0.479947 -0.248241 1.345750
v 1.031800 0.132694 0.651120
v 0.479947 -0.248241 1.345750
v 0.673616 0.082525 1.530340
v 0.461256 -0.010016 1.742930
v 0.008046 -0.025020 -2.878350
v 0.026452 -0.010908 -3.131260
v 0.000000 0.639847 -3.413970
v 0.000000 0.639847 -3.413970
v 0.026452 -0.010908 -3.131260
v 0.000000 0.895596 -3.746680
v 0.000000 0.895596 -3.746680
v 0.026452 -0.010908 -3.131260
v 0.000000 0.000348 -3.335000
v 0.000000 -0.840729 -3.347270
v 0.026452 -0.010908 -3.131260
v 0.008046 -0.025020 -2.878350
v 0.000000 -1.104980 -3.631080
v 0.026452 -0.010908 -3.131260
v 0.000000 -0.840729 -3.347270
v 0.000000 0.000348 -3.335000
v 0.026452 -0.010908 -3.131260
v 0.000000 -1.104980 -3.631080
v -0.001343 0.948149 0.506514
v 0.028072 1.109930 0.919705
v 0.037501 0.806737 0.516907
v 0.000000 0.719462 -0.589677
v 0.000000 0.815451 -0.377710
v 0.037501 0.806737 0.516907
v 0.000000 0.000348 -3.335000
v 0.000000 -0.141923 -2.819260
v -0.077620 -0.029144 -2.823230
v 0.000000 -0.464645 -1.738150
v -0.201665 -0.288417 -1.742390
v 0.000000 -0.141923 -2.819260
v 0.000000 -0.141923 -2.819260
v -0.201665 -0.288417 -1.742390
v -0.077620 -0.029144 -2.823230
v 0.000000 -0.816721 -0.658996
v -0.352697 -0.527400 -0.627079
v 0.000000 -0.464645 -1.738150
v 0.000000 -0.464645 -1.738150
v -0.352697 -0.527400 -0.627079
v -0.201665 -0.288417 -1.742390
v 0.000000 -0.954628 0.486827
v -0.415658 -0.644912 0.485764
v 0.000000 -0.816721 -0.658996
v 0.000000 -0.816721 -0.658996
v -0.415658 -0.644912 0.485764
v -0.352697 -0.527400 -0.627079
v -0.375511 -0.569864 1.556720
v -0.415658 -0.644912 0.485764
v 0.000000 -0.864446 1.546360
v 0.000000 -0.864446 1.546360
v -0.415658 -0.644912 0.485764
v 0.000000 -0.954628 0.486827
v -0.288929 -0.507156 2.711250
v -0.375511 -0.569864 1.556720
v 0.000000 -0.649865 2.701080
v 0.000000 -0.649865 2.701080
v -0.375511 -0.569864 1.556720
v 0.000000 -0.864446 1.546360
v -0.125794 -0.251465 3.336330
v -0.288929 -0.507156 2.711250
v 0.000000 -0.347862 3.348740
v 0.000000 -0.347862 3.348740
v -0.288929 -0.507156 2.711250
v 0.000000 -0.649865 2.701080
v -0.125794 -0.251465 3.336330
v 0.000000 -0.347862 3.348740
v -0.085182 -0.004407 3.558720
v -0.085182 -0.004407 3.558720
v 0.000000 -0.347862 3.348740
v 0.000000 0.028329 3.650680
v -0.085182 -0.004407 3.558720
v -0.176808 -0.103179 3.299870
v -0.125794 -0.251465 3.336330
v -0.201665 -0.288417 -1.742390
v -0.263654 -0.073073 -1.753480
v -0.077620 -0.029144 -2.823230
v -0.352697 -0.527400 -0.627079
v -0.464318 -0.118902 -0.617108
v -0.201665 -0.288417 -1.742390
v -0.201665 -0.288417 -1.742390
v -0.464318 -0.118902 -0.617108
v -0.263654 -0.073073 -1.753480
v -0.415658 -0.644912 0.485764
v -0.569104 -0.155669 0.500030
v -0.352697 -0.527400 -0.627079
v -0.352697 -0.527400 -0.627079
v -0.569104 -0.155669 0.500030
v -0.464318 -0.118902 -0.617108
v -0.525119 -0.138516 1.558870
v -0.569104 -0.155669 0.500030
v -0.375511 -0.569864 1.556720
v -0.375511 -0.569864 1.556720
v -0.569104 -0.155669 0.500030
v -0.415658 -0.644912 0.485764
v -0.288929 -0.507156 2.711250
v -0.404695 -0.118710 2.702500
v -0.375511 -0.569864 1.556720
v -0.375511 -0.569864 1.556720
v -0.404695 -0.118710 2.702500
v -0.525119 -0.138516 1.558870
v -0.176808 -0.103179 3.299870
v -0.404695 -0.118710 2.702500
v -0.125794 -0.251465 3.336330
v -0.125794 -0.251465 3.336330
v -0.404695 -0.118710 2.702500
v -0.288929 -0.507156 2.711250
v 0.000000 0.768966 1.425230
v -0.028072 1.109930 0.919705
v -0.037501 0.806737 0.516907
v -0.263654 -0.073073 -1.753480
v -0.189649 0.190975 -1.752500
v -0.077620 -0.029144 -2.823230
v -0.077620 -0.029144 -2.823230
v -0.189649 0.190975 -1.752500
v 0.008046 0.081330 -2.816440
v -0.077620 -0.029144 -2.823230
v 0.008046 0.081330 -2.816440
v 0.000000 0.000348 -3.335000
v -0.346567 0.400286 -0.595003
v -0.189649 0.190975 -1.752500
v -0.464318 -0.118902 -0.617108
v -0.464318 -0.118902 -0.617108
v -0.189649 0.190975 -1.752500
v -0.263654 -0.073073 -1.753480
v -0.408605 0.485442 0.499873
v -0.346567 0.400286 -0.595003
v -0.569104 -0.155669 0.500030
v -0.569104 -0.155669 0.500030
v -0.346567 0.400286 -0.595003
v -0.464318 -0.118902 -0.617108
v -0.525119 -0.138516 1.558870
v -0.389869 0.466857 1.488120
v -0.569104 -0.155669 0.500030
v -0.569104 -0.155669 0.500030
v -0.389869 0.466857 1.488120
v -0.408605 0.485442 0.499873
v -0.404695 -0.118710 2.702500
v -0.315388 0.322124 2.723420
v -0.525119 -0.138516 1.558870
v -0.525119 -0.138516 1.558870
v -0.315388 0.322124 2.723420
v -0.389869 0.466857 1.488120
v -0.147963 0.137095 3.369050
v -0.315388 0.322124 2.723420
v -0.176808 -0.103179 3.299870
v -0.176808 -0.103179 3.299870
v -0.315388 0.322124 2.723420
v -0.404695 -0.118710 2.702500
v -0.085182 -0.004407 3.558720
v -0.078168 0.054486 3.549690
v -0.176808 -0.103179 3.299870
v 0.008046 0.081330 -2.816440
v -0.189649 0.190975 -1.752500
v 0.000000 0.368258 -1.730310
v 0.000000 1.667380 0.968175
v -0.028072 1.109930 0.919705
v 0.000000 0.768966 1.425230
v 0.000000 0.719462 -0.589677
v 0.000000 0.368258 -1.730310
v -0.346567 0.400286 -0.595003
v -0.346567 0.400286 -0.595003
v 0.000000 0.368258 -1.730310
v -0.189649 0.190975 -1.752500
v -0.037501 0.806737 0.516907
v 0.000000 0.719462 -0.589677
v -0.408605 0.485442 0.499873
v -0.408605 0.485442 0.499873
v 0.000000 0.719462 -0.589677
v -0.346567 0.400286 -0.595003
v -0.389869 0.466857 1.488120
v 0.000000 0.768966 1.425230
v -0.408605 0.485442 0.499873
v -0.408605 0.485442 0.499873
v 0.000000 0.768966 1.425230
v -0.037501 0.806737 0.516907
v -0.315388 0.322124 2.723420
v 0.000000 0.491051 2.734640
v -0.389869 0.466857 1.488120
v -0.389869 0.466857 1.488120
v 0.000000 0.491051 2.734640
v 0.000000 0.768966 1.425230
v 0.000000 0.219785 3.390620
v 0.000000 0.491051 2.734640
v -0.147963 0.137095 3.369050
v -0.147963 0.137095 3.369050
v 0.000000 0.491051 2.734640
v -0.315388 0.322124 2.723420
v 0.000000 0.096186 3.614370
v 0.000000 0.219785 3.390620
v -0.078168 0.054486 3.549690
v -0.078168 0.054486 3.549690
v 0.000000 0.219785 3.390620
v -0.147963 0.137095 3.369050
v -0.001343 0.948149 0.506514
v 0.000000 0.815451 -0.377710
v -0.037501 0.806737 0.516907
v -0.176808 -0.103179 3.299870
v -0.078168 0.054486 3.549690
v -0.147963 0.137095 3.369050
v -0.085182 -0.004407 3.558720
v 0.000000 0.028329 3.650680
v -0.078168 0.054486 3.549690
v -0.078168 0.054486 3.549690
v 0.000000 0.028329 3.650680
v 0.000000 0.096186 3.614370
v 0.000000 1.201700 -0.908833
v 0.000000 0.795616 -0.871537
v -0.020348 0.710557 -0.569983
v -0.020348 0.710557 -0.569983
v 0.000000 0.795616 -0.871537
v 0.000000 0.477977 -1.325830
v 0.000000 -1.194110 -1.303540
v 0.000000 -0.792346 -1.300990
v -0.027391 -0.716095 -0.891744
v -0.027391 -0.716095 -0.891744
v 0.000000 -0.792346 -1.300990
v 0.000000 -0.459796 -1.740980
v 0.000000 -1.563570 1.368410
v 0.000000 -1.450830 1.276690
v -0.027391 -0.820105 1.601840
v -0.027391 -0.820105 1.601840
v 0.000000 -1.450830 1.276690
v 0.000000 -0.877515 1.133450
v -1.031800 0.132694 0.651120
v -0.479947 -0.248241 1.345750
v -0.673616 0.082525 1.530340
v -0.461256 -0.010016 1.742930
v -0.673616 0.082525 1.530340
v -0.479947 -0.248241 1.345750
v 0.000000 0.639847 -3.413970
v -0.026452 -0.010908 -3.131260
v 0.008046 -0.025020 -2.878350
v 0.000000 0.895596 -3.746680
v -0.026452 -0.010908 -3.131260
v 0.000000 0.639847 -3.413970
v 0.000000 0.000348 -3.335000
v -0.026452 -0.010908 -3.131260
v 0.000000 0.895596 -3.746680
v 0.008046 -0.025020 -2.878350
v -0.026452 -0.010908 -3.131260
v 0.000000 -0.840729 -3.347270
v 0.000000 -0.840729 -3.347270
v -0.026452 -0.010908 -3.131260
v 0.000000 -1.104980 -3.631080
v 0.000000 -1.104980 -3.631080
v -0.026452 -0.010908 -3.131260
v 0.000000 0.000348 -3.335000
v -0.037501 0.806737 0.516907
v -0.028072 1.109930 0.919705
v -0.001343 0.948149 0.506514
v -0.037501 0.806737 0.516907
v 0.000000 0.815451 -0.377710
v 0.000000 0.719462 -0.589677
vn 0.970991 -0.146312 -0.189126
vn 0.757427 -0.624624 -0.190129
vn 0.811176 -0.563745 -0.155514
vn 0.970991 -0.146312 -0.189126
vn 0.834304 -0.508477 -0.213046
vn 0.757427 -0.624624 -0.190129
vn 0.757427 -0.624624 -0.190129
vn 0.834304 -0.508477 -0.213046
vn 0.665075 -0.709551 -0.232838
vn 0.834304 -0.508477 -0.213046
vn 0.825296 -0.540795 -0.162565
vn 0.665075 -0.709551 -0.232838
vn 0.665075 -0.709551 -0.232838
vn 0.825296 -0.540795 -0.162565
vn 0.624183 -0.761607 -0.174215
vn 0.825296 -0.540795 -0.162565
vn 0.821309 -0.570162 -0.019172
vn 0.624183 -0.761607 -0.174215
vn 0.624183 -0.761607 -0.174215
vn 0.821309 -0.570162 -0.019172
vn 0.611902 -0.790763 -0.016401
vn 0.611902 -0.790763 -0.016401
vn 0.821309 -0.570162 -0.019172
vn 0.574548 -0.812749 0.096614
vn 0.574548 -0.812749 0.096614
vn 0.821309 -0.570162 -0.019172
vn 0.801777 -0.590859 0.089663
vn 0.574548 -0.812749 0.096614
vn 0.801777 -0.590859 0.089663
vn 0.000000 -0.951319 0.308209
vn 0.000000 -0.951319 0.308209
vn 0.801777 -0.590859 0.089663
vn 0.767266 -0.586241 0.260047
vn 0.000000 -0.951319 0.308209
vn 0.767266 -0.586241 0.260047
vn 0.000000 -0.774989 0.631975
vn 0.000000 -0.774989 0.631975
vn 0.767266 -0.586241 0.260047
vn 0.732756 -0.476596 0.485722
vn 0.000000 -0.203403 0.979095
vn 0.000000 -0.774989 0.631975
vn 0.836374 -0.089155 0.540861
vn 0.836374 -0.089155 0.540861
vn 0.000000 -0.774989 0.631975
vn 0.732756 -0.476596 0.485722
vn 0.732756 -0.476596 0.485722
vn 0.938033 -0.036117 0.344659
vn 0.836374 -0.089155 0.540861
vn 0.970991 -0.146312 -0.189126
vn 0.983433 0.013141 -0.180795
vn 0.834304 -0.508477 -0.213046
vn 0.983433 0.013141 -0.180795
vn 0.990842 -0.018294 -0.133785
vn 0.834304 -0.508477 -0.213046
vn 0.834304 -0.508477 -0.213046
vn 0.990842 -0.018294 -0.133785
vn 0.825296 -0.540795 -0.162565
vn 0.990842 -0.018294 -0.133785
vn 0.999195 -0.032891 -0.022992
vn 0.825296 -0.540795 -0.162565
vn 0.825296 -0.540795 -0.162565
vn 0.999195 -0.032891 -0.022992
vn 0.821309 -0.570162 -0.019172
vn 0.821309 -0.570162 -0.019172
vn 0.999195 -0.032891 -0.022992
vn 0.801777 -0.590859 0.089663
vn 0.801777 -0.590859 0.089663
vn 0.999195 -0.032891 -0.022992
vn 0.996560 -0.045007 0.069584
vn 0.996560 -0.045007 0.069584
vn 0.973930 -0.057718 0.219381
vn 0.801777 -0.590859 0.089663
vn 0.801777 -0.590859 0.089663
vn 0.973930 -0.057718 0.219381
vn 0.767266 -0.586241 0.260047
vn 0.767266 -0.586241 0.260047
vn 0.973930 -0.057718 0.219381
vn 0.732756 -0.476596 0.485722
vn 0.732756 -0.476596 0.485722
vn 0.973930 -0.057718 0.219381
vn 0.938033 -0.036117 0.344659
vn 0.926564 0.373482 -0.044613
vn 0.995731 0.091249 -0.013942
vn 0.886576 0.453861 0.089402
vn 0.821001 0.549774 -0.153968
vn 0.826235 0.529387 -0.192574
vn 0.970991 -0.146312 -0.189126
vn 0.970991 -0.146312 -0.189126
vn 0.826235 0.529387 -0.192574
vn 0.983433 0.013141 -0.180795
vn 0.839543 0.534650 -0.096521
vn 0.821001 0.549774 -0.153968
vn 0.970991 -0.146312 -0.189126
vn 0.983433 0.013141 -0.180795
vn 0.826235 0.529387 -0.192574
vn 0.990842 -0.018294 -0.133785
vn 0.990842 -0.018294 -0.133785
vn 0.826235 0.529387 -0.192574
vn 0.849316 0.507615 -0.144878
vn 0.990842 -0.018294 -0.133785
vn 0.849316 0.507615 -0.144878
vn 0.999195 -0.032891 -0.022992
vn 0.999195 -0.032891 -0.022992
vn 0.849316 0.507615 -0.144878
vn 0.852055 0.522857 -0.024961
vn 0.852055 0.522857 -0.024961
vn 0.833000 0.546803 0.084365
vn 0.999195 -0.032891 -0.022992
vn 0.999195 -0.032891 -0.022992
vn 0.833000 0.546803 0.084365
vn 0.996560 -0.045007 0.069584
vn 0.833000 0.546803 0.084365
vn 0.802344 0.542605 0.248643
vn 0.996560 -0.045007 0.069584
vn 0.996560 -0.045007 0.069584
vn 0.802344 0.542605 0.248643
vn 0.973930 -0.057718 0.219381
vn 0.973930 -0.057718 0.219381
vn 0.802344 0.542605 0.248643
vn 0.938033 -0.036117 0.344659
vn 0.938033 -0.036117 0.344659
vn 0.802344 0.542605 0.248643
vn 0.795290 0.450639 0.405511
vn 0.938033 -0.036117 0.344659
vn 0.838108 0.298460 0.456614
vn 0.836374 -0.089155 0.540861
vn 0.657829 0.724963 -0.204179
vn 0.826235 0.529387 -0.192574
vn 0.821001 0.549774 -0.153968
vn 0.886576 0.453861 0.089402
vn 0.995731 0.091249 -0.013942
vn 0.995532 0.042815 0.084159
vn 0.826235 0.529387 -0.192574
vn 0.657829 0.724963 -0.204179
vn 0.849316 0.507615 -0.144878
vn 0.849316 0.507615 -0.144878
vn 0.657829 0.724963 -0.204179
vn 0.823298 0.553787 -0.124501
vn 0.849316 0.507615 -0.144878
vn 0.823298 0.553787 -0.124501
vn 0.852055 0.522857 -0.024961
vn 0.852055 0.522857 -0.024961
vn 0.823298 0.553787 -0.124501
vn 0.926564 0.373482 -0.044613
vn 0.926564 0.373482 -0.044613
vn 0.886576 0.453861 0.089402
vn 0.852055 0.522857 -0.024961
vn 0.852055 0.522857 -0.024961
vn 0.886576 0.453861 0.089402
vn 0.833000 0.546803 0.084365
vn 0.886576 0.453861 0.089402
vn 0.000000 0.956811 0.290710
vn 0.833000 0.546803 0.084365
vn 0.833000 0.546803 0.084365
vn 0.000000 0.956811 0.290710
vn 0.802344 0.542605 0.248643
vn 0.802344 0.542605 0.248643
vn 0.000000 0.956811 0.290710
vn 0.795290 0.450639 0.405511
vn 0.795290 0.450639 0.405511
vn 0.000000 0.956811 0.290710
vn 0.000000 0.884568 0.466411
vn 0.795290 0.450639 0.405511
vn 0.000000 0.884568 0.466411
vn 0.838108 0.298460 0.456614
vn 0.838108 0.298460 0.456614
vn 0.000000 0.884568 0.466411
vn 0.662692 0.497709 0.559576
vn 0.926564 0.373482 -0.044613
vn 0.983452 0.176810 -0.039502
vn 0.961141 0.256514 -0.102021
vn 0.795290 0.450639 0.405511
vn 0.838108 0.298460 0.456614
vn 0.938033 -0.036117 0.344659
vn 0.662692 0.497709 0.559576
vn 0.000000 -0.203403 0.979095
vn 0.838108 0.298460 0.456614
vn 0.838108 0.298460 0.456614
vn 0.000000 -0.203403 0.979095
vn 0.836374 -0.089155 0.540861
vn 0.997800 0.031112 -0.058552
vn 0.997800 0.031112 -0.058552
vn 0.997589 -0.006347 -0.069104
vn 0.996499 0.068523 -0.047911
vn 0.997800 0.031112 -0.058552
vn 0.997800 0.031112 -0.058552
vn -0.997565 0.035192 0.060212
vn -0.997565 0.035192 0.060212
vn -0.997762 -0.000425 0.066861
vn -0.996059 0.070762 0.053483
vn -0.997565 0.035192 0.060212
vn -0.997565 0.035192 0.060212
vn -0.998795 0.020358 0.044649
vn -0.998795 0.020358 0.044649
vn -0.999114 0.026560 0.032645
vn -0.998294 0.014152 0.056645
vn -0.998795 0.020358 0.044649
vn -0.998795 0.020358 0.044649
vn 0.716702 -0.609135 0.339548
vn 0.716702 -0.609135 0.339548
vn 0.755505 -0.595175 0.273822
vn 0.716702 -0.609135 0.339548
vn 0.716702 -0.609135 0.339548
vn 0.673584 -0.619428 0.403229
vn 0.997244 0.011889 0.073238
vn 0.999987 0.002671 -0.004451
vn 0.995831 0.067253 0.061630
vn 0.995831 0.067253 0.061630
vn 0.999987 0.002671 -0.004451
vn 0.999085 0.000119 -0.042768
vn 0.999085 0.000119 -0.042768
vn 0.999987 0.002671 -0.004451
vn 0.991494 -0.013334 -0.129464
vn 0.997459 -0.045963 0.054424
vn 0.999987 0.002671 -0.004451
vn 0.997244 0.011889 0.073238
vn 0.999022 -0.004033 -0.044043
vn 0.999987 0.002671 -0.004451
vn 0.997459 -0.045963 0.054424
vn 0.991494 -0.013334 -0.129464
vn 0.999987 0.002671 -0.004451
vn 0.999022 -0.004033 -0.044043
vn 0.961141 0.256514 -0.102021
vn 0.995731 0.091249 -0.013942
vn 0.926564 0.373482 -0.044613
vn 0.823298 0.553787 -0.124501
vn 0.983452 0.176810 -0.039502
vn 0.926564 0.373482 -0.044613
vn -0.811176 -0.563745 -0.155514
vn -0.757427 -0.624624 -0.190129
vn -0.973869 -0.122733 -0.191090
vn -0.665075 -0.709551 -0.232838
vn -0.834304 -0.508477 -0.213046
vn -0.757427 -0.624624 -0.190129
vn -0.757427 -0.624624 -0.190129
vn -0.834304 -0.508477 -0.213046
vn -0.973869 -0.122733 -0.191090
vn -0.624183 -0.761607 -0.174215
vn -0.825296 -0.540795 -0.162565
vn -0.665075 -0.709551 -0.232838
vn -0.665075 -0.709551 -0.232838
vn -0.825296 -0.540795 -0.162565
vn -0.834304 -0.508477 -0.213046
vn -0.611902 -0.790763 -0.016401
vn -0.821309 -0.570162 -0.019172
vn -0.624183 -0.761607 -0.174215
vn -0.624183 -0.761607 -0.174215
vn -0.821309 -0.570162 -0.019172
vn -0.825296 -0.540795 -0.162565
vn -0.801777 -0.590859 0.089663
vn -0.821309 -0.570162 -0.019172
vn -0.574548 -0.812749 0.096614
vn -0.574548 -0.812749 0.096614
vn -0.821309 -0.570162 -0.019172
vn -0.611902 -0.790763 -0.016401
vn -0.767266 -0.586241 0.260047
vn -0.801777 -0.590859 0.089663
vn 0.000000 -0.951319 0.308209
vn 0.000000 -0.951319 0.308209
vn -0.801777 -0.590859 0.089663
vn -0.574548 -0.812749 0.096614
vn -0.732756 -0.476596 0.485722
vn -0.767266 -0.586241 0.260047
vn 0.000000 -0.774989 0.631975
vn 0.000000 -0.774989 0.631975
vn -0.767266 -0.586241 0.260047
vn 0.000000 -0.951319 0.308209
vn -0.732756 -0.476596 0.485722
vn 0.000000 -0.774989 0.631975
vn -0.836374 -0.089155 0.540861
vn -0.836374 -0.089155 0.540861
vn 0.000000 -0.774989 0.631975
vn 0.000000 -0.203403 0.979095
vn -0.836374 -0.089155 0.540861
vn -0.938033 -0.036117 0.344659
vn -0.732756 -0.476596 0.485722
vn -0.834304 -0.508477 -0.213046
vn -0.982906 0.021925 -0.182799
vn -0.973869 -0.122733 -0.191090
vn -0.825296 -0.540795 -0.162565
vn -0.990842 -0.018294 -0.133785
vn -0.834304 -0.508477 -0.213046
vn -0.834304 -0.508477 -0.213046
vn -0.990842 -0.018294 -0.133785
vn -0.982906 0.021925 -0.182799
vn -0.821309 -0.570162 -0.019172
vn -0.999195 -0.032891 -0.022992
vn -0.825296 -0.540795 -0.162565
vn -0.825296 -0.540795 -0.162565
vn -0.999195 -0.032891 -0.022992
vn -0.990842 -0.018294 -0.133785
vn -0.996560 -0.045007 0.069584
vn -0.999195 -0.032891 -0.022992
vn -0.801777 -0.590859 0.089663
vn -0.801777 -0.590859 0.089663
vn -0.999195 -0.032891 -0.022992
vn -0.821309 -0.570162 -0.019172
vn -0.767266 -0.586241 0.260047
vn -0.973930 -0.057718 0.219381
vn -0.801777 -0.590859 0.089663
vn -0.801777 -0.590859 0.089663
vn -0.973930 -0.057718 0.219381
vn -0.996560 -0.045007 0.069584
vn -0.938033 -0.036117 0.344659
vn -0.973930 -0.057718 0.219381
vn -0.732756 -0.476596 0.485722
vn -0.732756 -0.476596 0.485722
vn -0.973930 -0.057718 0.219381
vn -0.767266 -0.586241 0.260047
vn -0.886576 0.453861 0.089402
vn -0.996262 0.085815 -0.009885
vn -0.928922 0.367821 -0.042569
vn -0.982906 0.021925 -0.182799
vn -0.820549 0.536890 -0.196085
vn -0.973869 -0.122733 -0.191090
vn -0.973869 -0.122733 -0.191090
vn -0.820549 0.536890 -0.196085
vn -0.795146 0.586454 -0.154321
vn -0.973869 -0.122733 -0.191090
vn -0.795146 0.586454 -0.154321
vn -0.784978 0.613846 -0.083682
vn -0.849316 0.507615 -0.144878
vn -0.820549 0.536890 -0.196085
vn -0.990842 -0.018294 -0.133785
vn -0.990842 -0.018294 -0.133785
vn -0.820549 0.536890 -0.196085
vn -0.982906 0.021925 -0.182799
vn -0.852055 0.522857 -0.024961
vn -0.849316 0.507615 -0.144878
vn -0.999195 -0.032891 -0.022992
vn -0.999195 -0.032891 -0.022992
vn -0.849316 0.507615 -0.144878
vn -0.990842 -0.018294 -0.133785
vn -0.996560 -0.045007 0.069584
vn -0.833000 0.546803 0.084365
vn -0.999195 -0.032891 -0.022992
vn -0.999195 -0.032891 -0.022992
vn -0.833000 0.546803 0.084365
vn -0.852055 0.522857 -0.024961
vn -0.973930 -0.057718 0.219381
vn -0.802344 0.542605 0.248643
vn -0.996560 -0.045007 0.069584
vn -0.996560 -0.045007 0.069584
vn -0.802344 0.542605 0.248643
vn -0.833000 0.546803 0.084365
vn -0.795290 0.450639 0.405511
vn -0.802344 0.542605 0.248643
vn -0.938033 -0.036117 0.344659
vn -0.938033 -0.036117 0.344659
vn -0.802344 0.542605 0.248643
vn -0.973930 -0.057718 0.219381
vn -0.836374 -0.089155 0.540861
vn -0.838108 0.298460 0.456614
vn -0.938033 -0.036117 0.344659
vn -0.795146 0.586454 -0.154321
vn -0.820549 0.536890 -0.196085
vn -0.656843 0.724503 -0.208932
vn -0.995532 0.042815 0.084159
vn -0.996262 0.085815 -0.009885
vn -0.886576 0.453861 0.089402
vn -0.823298 0.553787 -0.124501
vn -0.656843 0.724503 -0.208932
vn -0.849316 0.507615 -0.144878
vn -0.849316 0.507615 -0.144878
vn -0.656843 0.724503 -0.208932
vn -0.820549 0.536890 -0.196085
vn -0.928922 0.367821 -0.042569
vn -0.823298 0.553787 -0.124501
vn -0.852055 0.522857 -0.024961
vn -0.852055 0.522857 -0.024961
vn -0.823298 0.553787 -0.124501
vn -0.849316 0.507615 -0.144878
vn -0.833000 0.546803 0.084365
vn -0.886576 0.453861 0.089402
vn -0.852055 0.522857 -0.024961
vn -0.852055 0.522857 -0.024961
vn -0.886576 0.453861 0.089402
vn -0.928922 0.367821 -0.042569
vn -0.802344 0.542605 0.248643
vn 0.000000 0.956811 0.290710
vn -0.833000 0.546803 0.084365
vn -0.833000 0.546803 0.084365
vn 0.000000 0.956811 0.290710
vn -0.886576 0.453861 0.089402
vn 0.000000 0.884568 0.466411
vn 0.000000 0.956811 0.290710
vn -0.795290 0.450639 0.405511
vn -0.795290 0.450639 0.405511
vn 0.000000 0.956811 0.290710
vn -0.802344 0.542605 0.248643
vn -0.662692 0.497709 0.559576
vn 0.000000 0.884568 0.466411
vn -0.838108 0.298460 0.456614
vn -0.838108 0.298460 0.456614
vn 0.000000 0.884568 0.466411
vn -0.795290 0.450639 0.405511
vn -0.966014 0.239934 -0.096166
vn -0.984980 0.168056 -0.039652
vn -0.928922 0.367821 -0.042569
vn -0.938033 -0.036117 0.344659
vn -0.838108 0.298460 0.456614
vn -0.795290 0.450639 0.405511
vn -0.836374 -0.089155 0.540861
vn 0.000000 -0.203403 0.979095
vn -0.838108 0.298460 0.456614
vn -0.838108 0.298460 0.456614
vn 0.000000 -0.203403 0.979095
vn -0.662692 0.497709 0.559576
vn -0.997589 -0.006347 -0.069104
vn -0.997800 0.031112 -0.058552
vn -0.997800 0.031112 -0.058552
vn -0.997800 0.031112 -0.058552
vn -0.997800 0.031112 -0.058552
vn -0.996499 0.068523 -0.047911
vn 0.997762 -0.000425 0.066861
vn 0.997565 0.035192 0.060212
vn 0.997565 0.035192 0.060212
vn 0.997565 0.035192 0.060212
vn 0.997565 0.035192 0.060212
vn 0.996059 0.070762 0.053483
vn 0.999114 0.026560 0.032645
vn 0.998795 0.020358 0.044649
vn 0.998795 0.020358 0.044649
vn 0.998795 0.020358 0.044649
vn 0.998795 0.020358 0.044649
vn 0.998294 0.014152 0.056645
vn -0.755505 -0.595175 0.273822
vn -0.716702 -0.609135 0.339548
vn -0.716702 -0.609135 0.339548
vn -0.673584 -0.619428 0.403229
vn -0.716702 -0.609135 0.339548
vn -0.716702 -0.609135 0.339548
vn -0.992322 0.080956 0.093501
vn -0.999852 0.004597 0.016550
vn -0.990538 0.017638 0.136097
vn -0.999085 0.000119 -0.042768
vn -0.999852 0.004597 0.016550
vn -0.992322 0.080956 0.093501
vn -0.991494 -0.013334 -0.129464
vn -0.999852 0.004597 0.016550
vn -0.999085 0.000119 -0.042768
vn -0.990538 0.017638 0.136097
vn -0.999852 0.004597 0.016550
vn -0.994897 -0.053915 0.085284
vn -0.994897 -0.053915 0.085284
vn -0.999852 0.004597 0.016550
vn -0.999022 -0.004033 -0.044043
vn -0.999022 -0.004033 -0.044043
vn -0.999852 0.004597 0.016550
vn -0.991494 -0.013334 -0.129464
vn -0.928922 0.367821 -0.042569
vn -0.996262 0.085815 -0.009885
vn -0.966014 0.239934 -0.096166
vn -0.928922 0.367821 -0.042569
vn -0.984980 0.168056 -0.039652
vn -0.823298 0.553787 -0.124501
vt 0.867524 0.474914
vt 0.866989 0.440008
vt 0.935042 0.481496
vt 0.867524 0.474914
vt 0.729053 0.394667
vt 0.866989 0.440008
vt 0.866989 0.440008
vt 0.729053 0.394667
vt 0.728479 0.340123
vt 0.729053 0.394667
vt 0.578282 0.320700
vt 0.728479 0.340123
vt 0.728479 0.340123
vt 0.578282 0.320700
vt 0.582596 0.231153
vt 0.578282 0.320700
vt 0.427844 0.284329
vt 0.582596 0.231153
vt 0.582596 0.231153
vt 0.427844 0.284329
vt 0.426959 0.198851
vt 0.426959 0.198851
vt 0.427844 0.284329
vt 0.284469 0.216382
vt 0.284469 0.216382
vt 0.427844 0.284329
vt 0.283068 0.307557
vt 0.284469 0.216382
vt 0.283068 0.307557
vt 0.128370 0.290212
vt 0.128370 0.290212
vt 0.283068 0.307557
vt 0.126995 0.326966
vt 0.128370 0.290212
vt 0.126995 0.326966
vt 0.042299 0.382201
vt 0.042299 0.382201
vt 0.126995 0.326966
vt 0.044718 0.409070
vt -0.003704 0.480838
vt 0.042299 0.382201
vt 0.012432 0.482570
vt 0.012432 0.482570
vt 0.042299 0.382201
vt 0.044718 0.409070
vt 0.044718 0.409070
vt 0.047424 0.452000
vt 0.012432 0.482570
vt 0.867524 0.474914
vt 0.730552 0.461318
vt 0.729053 0.394667
vt 0.730552 0.461318
vt 0.576934 0.447133
vt 0.729053 0.394667
vt 0.729053 0.394667
vt 0.576934 0.447133
vt 0.578282 0.320700
vt 0.576934 0.447133
vt 0.425915 0.435754
vt 0.578282 0.320700
vt 0.578282 0.320700
vt 0.425915 0.435754
vt 0.427844 0.284329
vt 0.427844 0.284329
vt 0.425915 0.435754
vt 0.283068 0.307557
vt 0.283068 0.307557
vt 0.425915 0.435754
vt 0.282777 0.441062
vt 0.282777 0.441062
vt 0.128179 0.447192
vt 0.283068 0.307557
vt 0.283068 0.307557
vt 0.128179 0.447192
vt 0.126995 0.326966
vt 0.126995 0.326966
vt 0.128179 0.447192
vt 0.044718 0.409070
vt 0.044718 0.409070
vt 0.128179 0.447192
vt 0.047424 0.452000
vt 0.423634 0.732776
vt 0.369182 0.827466
vt 0.300844 0.721935
vt 0.866607 0.509106
vt 0.730420 0.543042
vt 0.867524 0.474914
vt 0.867524 0.474914
vt 0.730420 0.543042
vt 0.730552 0.461318
vt 0.935042 0.481496
vt 0.866607 0.509106
vt 0.867524 0.474914
vt 0.730552 0.461318
vt 0.730420 0.543042
vt 0.576934 0.447133
vt 0.576934 0.447133
vt 0.730420 0.543042
vt 0.573946 0.607825
vt 0.576934 0.447133
vt 0.573946 0.607825
vt 0.425915 0.435754
vt 0.425915 0.435754
vt 0.573946 0.607825
vt 0.425937 0.634182
vt 0.425937 0.634182
vt 0.292342 0.628430
vt 0.425915 0.435754
vt 0.425915 0.435754
vt 0.292342 0.628430
vt 0.282777 0.441062
vt 0.292342 0.628430
vt 0.125351 0.583634
vt 0.282777 0.441062
vt 0.282777 0.441062
vt 0.125351 0.583634
vt 0.128179 0.447192
vt 0.128179 0.447192
vt 0.125351 0.583634
vt 0.047424 0.452000
vt 0.047424 0.452000
vt 0.125351 0.583634
vt 0.038071 0.526366
vt 0.047424 0.452000
vt 0.013652 0.500798
vt 0.012432 0.482570
vt 0.727421 0.612743
vt 0.730420 0.543042
vt 0.866607 0.509106
vt 0.300844 0.721935
vt 0.369182 0.827466
vt 0.362630 1.000000
vt 0.730420 0.543042
vt 0.727421 0.612743
vt 0.573946 0.607825
vt 0.573946 0.607825
vt 0.727421 0.612743
vt 0.573226 0.706613
vt 0.573946 0.607825
vt 0.573226 0.706613
vt 0.425937 0.634182
vt 0.425937 0.634182
vt 0.573226 0.706613
vt 0.423634 0.732776
vt 0.423634 0.732776
vt 0.300844 0.721935
vt 0.425937 0.634182
vt 0.425937 0.634182
vt 0.300844 0.721935
vt 0.292342 0.628430
vt 0.300844 0.721935
vt 0.123833 0.635918
vt 0.292342 0.628430
vt 0.292342 0.628430
vt 0.123833 0.635918
vt 0.125351 0.583634
vt 0.125351 0.583634
vt 0.123833 0.635918
vt 0.038071 0.526366
vt 0.038071 0.526366
vt 0.123833 0.635918
vt 0.035156 0.551959
vt 0.038071 0.526366
vt 0.035156 0.551959
vt 0.013652 0.500798
vt 0.013652 0.500798
vt 0.035156 0.551959
vt 0.004909 0.513705
vt 0.423634 0.732776
vt 0.544571 0.736322
vt 0.424529 0.774801
vt 0.038071 0.526366
vt 0.013652 0.500798
vt 0.047424 0.452000
vt 0.004909 0.513705
vt -0.003704 0.480838
vt 0.013652 0.500798
vt 0.013652 0.500798
vt -0.003704 0.480838
vt 0.012432 0.482570
vt 0.573226 0.706613
vt 0.611328 0.730183
vt 0.616370 0.855868
vt 0.673156 0.638919
vt 0.611328 0.730183
vt 0.573226 0.706613
vt 0.614060 0.262298
vt 0.669383 0.238698
vt 0.669728 0.114349
vt 0.728862 0.341624
vt 0.669383 0.238698
vt 0.614060 0.262298
vt 0.276969 0.230106
vt 0.320924 0.034892
vt 0.308525 0.000000
vt 0.340288 0.212337
vt 0.320924 0.034892
vt 0.276969 0.230106
vt 0.059988 0.902470
vt 0.084942 0.800095
vt 0.178845 0.917997
vt 0.084942 0.800095
vt 0.059988 0.902470
vt 0.031250 0.873828
vt 0.874976 0.476190
vt 0.909166 0.480558
vt 0.947383 0.681971
vt 0.947383 0.681971
vt 0.909166 0.480558
vt 0.992360 0.761127
vt 0.992360 0.761127
vt 0.909166 0.480558
vt 0.936708 0.484042
vt 0.938367 0.223723
vt 0.909166 0.480558
vt 0.874976 0.476190
vt 0.976732 0.141934
vt 0.909166 0.480558
vt 0.938367 0.223723
vt 0.936708 0.484042
vt 0.909166 0.480558
vt 0.976732 0.141934
vt 0.424529 0.774801
vt 0.369182 0.827466
vt 0.423634 0.732776
vt 0.573226 0.706613
vt 0.544571 0.736322
vt 0.423634 0.732776
vt 0.935042 0.481496
vt 0.866989 0.440008
vt 0.867524 0.474914
vt 0.728479 0.340123
vt 0.729053 0.394667
vt 0.866989 0.440008
vt 0.866989 0.440008
vt 0.729053 0.394667
vt 0.867524 0.474914
vt 0.582596 0.231153
vt 0.578282 0.320700
vt 0.728479 0.340123
vt 0.728479 0.340123
vt 0.578282 0.320700
vt 0.729053 0.394667
vt 0.426959 0.198851
vt 0.427844 0.284329
vt 0.582596 0.231153
vt 0.582596 0.231153
vt 0.427844 0.284329
vt 0.578282 0.320700
vt 0.283068 0.307557
vt 0.427844 0.284329
vt 0.284469 0.216382
vt 0.284469 0.216382
vt 0.427844 0.284329
vt 0.426959 0.198851
vt 0.126995 0.326966
vt 0.283068 0.307557
vt 0.128370 0.290212
vt 0.128370 0.290212
vt 0.283068 0.307557
vt 0.284469 0.216382
vt 0.042496 0.406104
vt 0.126995 0.326966
vt 0.042299 0.382201
vt 0.042299 0.382201
vt 0.126995 0.326966
vt 0.128370 0.290212
vt 0.042496 0.406104
vt 0.042299 0.382201
vt 0.012432 0.482570
vt 0.012432 0.482570
vt 0.042299 0.382201
vt -0.003704 0.480838
vt 0.012432 0.482570
vt 0.047424 0.452000
vt 0.042496 0.406104
vt 0.729053 0.394667
vt 0.730552 0.461318
vt 0.867524 0.474914
vt 0.578282 0.320700
vt 0.576934 0.447133
vt 0.729053 0.394667
vt 0.729053 0.394667
vt 0.576934 0.447133
vt 0.730552 0.461318
vt 0.427844 0.284329
vt 0.425915 0.435754
vt 0.578282 0.320700
vt 0.578282 0.320700
vt 0.425915 0.435754
vt 0.576934 0.447133
vt 0.282777 0.441062
vt 0.425915 0.435754
vt 0.283068 0.307557
vt 0.283068 0.307557
vt 0.425915 0.435754
vt 0.427844 0.284329
vt 0.126995 0.326966
vt 0.128179 0.447192
vt 0.283068 0.307557
vt 0.283068 0.307557
vt 0.128179 0.447192
vt 0.282777 0.441062
vt 0.047424 0.452000
vt 0.128179 0.447192
vt 0.042496 0.406104
vt 0.042496 0.406104
vt 0.128179 0.447192
vt 0.126995 0.326966
vt 0.300844 0.721935
vt 0.369182 0.827466
vt 0.423634 0.732776
vt 0.730552 0.461318
vt 0.730420 0.543042
vt 0.867524 0.474914
vt 0.867524 0.474914
vt 0.730420 0.543042
vt 0.866607 0.509106
vt 0.867524 0.474914
vt 0.866607 0.509106
vt 0.935042 0.481496
vt 0.573946 0.607825
vt 0.730420 0.543042
vt 0.576934 0.447133
vt 0.576934 0.447133
vt 0.730420 0.543042
vt 0.730552 0.461318
vt 0.425937 0.634182
vt 0.573946 0.607825
vt 0.425915 0.435754
vt 0.425915 0.435754
vt 0.573946 0.607825
vt 0.576934 0.447133
vt 0.282777 0.441062
vt 0.292342 0.628430
vt 0.425915 0.435754
vt 0.425915 0.435754
vt 0.292342 0.628430
vt 0.425937 0.634182
vt 0.128179 0.447192
vt 0.125351 0.583634
vt 0.282777 0.441062
vt 0.282777 0.441062
vt 0.125351 0.583634
vt 0.292342 0.628430
vt 0.038071 0.526366
vt 0.125351 0.583634
vt 0.047424 0.452000
vt 0.047424 0.452000
vt 0.125351 0.583634
vt 0.128179 0.447192
vt 0.012432 0.482570
vt 0.013652 0.500798
vt 0.047424 0.452000
vt 0.866607 0.509106
vt 0.730420 0.543042
vt 0.727421 0.612743
vt 0.362630 1.000000
vt 0.369182 0.827466
vt 0.300844 0.721935
vt 0.573226 0.706613
vt 0.727421 0.612743
vt 0.573946 0.607825
vt 0.573946 0.607825
vt 0.727421 0.612743
vt 0.730420 0.543042
vt 0.423634 0.732776
vt 0.573226 0.706613
vt 0.425937 0.634182
vt 0.425937 0.634182
vt 0.573226 0.706613
vt 0.573946 0.607825
vt 0.292342 0.628430
vt 0.300844 0.721935
vt 0.425937 0.634182
vt 0.425937 0.634182
vt 0.300844 0.721935
vt 0.423634 0.732776
vt 0.125351 0.583634
vt 0.123833 0.635918
vt 0.292342 0.628430
vt 0.292342 0.628430
vt 0.123833 0.635918
vt 0.300844 0.721935
vt 0.035156 0.551959
vt 0.123833 0.635918
vt 0.038071 0.526366
vt 0.038071 0.526366
vt 0.123833 0.635918
vt 0.125351 0.583634
vt 0.004909 0.513705
vt 0.035156 0.551959
vt 0.013652 0.500798
vt 0.013652 0.500798
vt 0.035156 0.551959
vt 0.038071 0.526366
vt 0.424529 0.774801
vt 0.544571 0.736322
vt 0.423634 0.732776
vt 0.047424 0.452000
vt 0.013652 0.500798
vt 0.038071 0.526366
vt 0.012432 0.482570
vt -0.003704 0.480838
vt 0.013652 0.500798
vt 0.013652 0.500798
vt -0.003704 0.480838
vt 0.004909 0.513705
vt 0.616370 0.855868
vt 0.611328 0.730183
vt 0.573226 0.706613
vt 0.573226 0.706613
vt 0.611328 0.730183
vt 0.673156 0.638919
vt 0.669728 0.114349
vt 0.669383 0.238698
vt 0.614060 0.262298
vt 0.614060 0.262298
vt 0.669383 0.238698
vt 0.728862 0.341624
vt 0.308525 0.000000
vt 0.320924 0.034892
vt 0.276969 0.230106
vt 0.276969 0.230106
vt 0.320924 0.034892
vt 0.340288 0.212337
vt 0.178845 0.917997
vt 0.084942 0.800095
vt 0.059988 0.902470
vt 0.031250 0.873828
vt 0.059988 0.902470
vt 0.084942 0.800095
vt 0.947383 0.681971
vt 0.909166 0.480558
vt 0.874976 0.476190
vt 0.992360 0.761127
vt 0.909166 0.480558
vt 0.947383 0.681971
vt 0.936708 0.484042
vt 0.909166 0.480558
vt 0.992360 0.761127
vt 0.874976 0.476190
vt 0.909166 0.480558
vt 0.938367 0.223723
vt 0.938367 0.223723
vt 0.909166 0.480558
vt 0.976732 0.141934
vt 0.976732 0.141934
vt 0.909166 0.480558
vt 0.936708 0.484042
vt 0.423634 0.732776
vt 0.369182 0.827466
vt 0.424529 0.774801
vt 0.423634 0.732776
vt 0.544571 0.736322
vt 0.573226 0.706613
f 1/1/1 2/2/2 3/3/3
f 4/4/4 5/5/5 6/6/6
f 7/7/7 8/8/8 9/9/9
f 10/10/10 11/11/11 12/12/12
f 13/13/13 14/14/14 15/15/15
f 16/16/16 17/17/17 18/18/18
f 19/19/19 20/20/20 21/21/21
f 22/22/22 23/23/23 24/24/24
f 25/25/25 26/26/26 27/27/27
f 28/28/28 29/29/29 30/30/30
f 31/31/31 32/32/32 33/33/33
f 34/34/34 35/35/35 36/36/36
f 37/37/37 38/38/38 39/39/39
f 40/40/40 41/41/41 42/42/42
f 43/43/43 44/44/44 45/45/45
f 46/46/46 47/47/47 48/48/48
f 49/49/49 50/50/50 51/51/51
f 52/52/52 53/53/53 54/54/54
f 55/55/55 56/56/56 57/57/57
f 58/58/58 59/59/59 60/60/60
f 61/61/61 62/62/62 63/63/63
f 64/64/64 65/65/65 66/66/66
f 67/67/67 68/68/68 69/69/69
f 70/70/70 71/71/71 72/72/72
f 73/73/73 74/74/74 75/75/75
f 76/76/76 77/77/77 78/78/78
f 79/79/79 80/80/80 81/81/81
f 82/82/82 83/83/83 84/84/84
f 85/85/85 86/86/86 87/87/87
f 88/88/88 89/89/89 90/90/90
f 91/91/91 92/92/92 93/93/93
f 94/94/94 95/95/95 96/96/96
f 97/97/97 98/98/98 99/99/99
f 100/100/100 101/101/101 102/102/102
f 103/103/103 104/104/104 105/105/105
f 106/106/106 107/107/107 108/108/108
f 109/109/109 110/110/110 111/111/111
f 112/112/112 113/113/113 114/114/114
f 115/115/115 116/116/116 117/117/117
f 118/118/118 119/119/119 120/120/120
f 121/121/121 122/122/122 123/123/123
f 124/124/124 125/125/125 126/126/126
f 127/127/127 128/128/128 129/129/129
f 130/130/130 131/131/131 132/132/132
f 133/133/133 134/134/134 135/135/135
f 136/136/136 137/137/137 138/138/138
f 139/139/139 140/140/140 141/141/141
f 142/142/142 143/143/143 144/144/144
f 145/145/145 146/146/146 147/147/147
f 148/148/148 149/149/149 150/150/150
f 151/151/151 152/152/152 153/153/153
f 154/154/154 155/155/155 156/156/156
f 157/157/157 158/158/158 159/159/159
f 160/160/160 161/161/161 162/162/162
f 163/163/163 164/164/164 165/165/165
f 166/166/166 167/167/167 168/168/168
f 169/169/169 170/170/170 171/171/171
f 172/172/172 173/173/173 174/174/174
f 175/175/175 176/176/176 177/177/177
f 178/178/178 179/179/179 180/180/180
f 181/181/181 182/182/182 183/183/183
f 184/184/184 185/185/185 186/186/186
f 187/187/187 188/188/188 189/189/189
f 190/190/190 191/191/191 192/192/192
f 193/193/193 194/194/194 195/195/195
f 196/196/196 197/197/197 198/198/198
f 199/199/199 200/200/200 201/201/201
f 202/202/202 203/203/203 204/204/204
f 205/205/205 206/206/206 207/207/207
f 208/208/208 209/209/209 210/210/210
f 211/211/211 212/212/212 213/213/213
f 214/214/214 215/215/215 216/216/216
f 217/217/217 218/218/218 219/219/219
f 220/220/220 221/221/221 222/222/222
f 223/223/223 224/224/224 225/225/225
f 226/226/226 227/227/227 228/228/228
f 229/229/229 230/230/230 231/231/231
f 232/232/232 233/233/233 234/234/234
f 235/235/235 236/236/236 237/237/237
f 238/238/238 239/239/239 240/240/240
f 241/241/241 242/242/242 243/243/243
f 244/244/244 245/245/245 246/246/246
f 247/247/247 248/248/248 249/249/249
f 250/250/250 251/251/251 252/252/252
f 253/253/253 254/254/254 255/255/255
f 256/256/256 257/257/257 258/258/258
f 259/259/259 260/260/260 261/261/261
f 262/262/262 263/263/263 264/264/264
f 265/265/265 266/266/266 267/267/267
f 268/268/268 269/269/269 270/270/270
f 271/271/271 272/272/272 273/273/273
f 274/274/274 275/275/275 276/276/276
f 277/277/277 278/278/278 279/279/279
f 280/280/280 281/281/281 282/282/282
f 283/283/283 284/284/284 285/285/285
f 286/286/286 287/287/287 288/288/288
f 289/289/289 290/290/290 291/291/291
f 292/292/292 293/293/293 294/294/294
f 295/295/295 296/296/296 297/297/297
f 298/298/298 299/299/299 300/300/300
f 301/301/301 302/302/302 303/303/303
f 304/304/304 305/305/305 306/306/306
f 307/307/307 308/308/308 309/309/309
f 310/310/310 311/311/311 312/312/312
f 313/313/313 314/314/314 315/315/315
f 316/316/316 317/317/317 318/318/318
f 319/319/319 320/320/320 321/321/321
f 322/322/322 323/323/323 324/324/324
f 325/325/325 326/326/326 327/327/327
f 328/328/328 329/329/329 330/330/330
f 331/331/331 332/332/332 333/333/333
f 334/334/334 335/335/335 336/336/336
f 337/337/337 338/338/338 339/339/339
f 340/340/340 341/341/341 342/342/342
f 343/343/343 344/344/344 345/345/345
f 346/346/346 347/347/347 348/348/348
f 349/349/349 350/350/350 351/351/351
f 352/352/352 353/353/353 354/354/354
f 355/355/355 356/356/356 357/357/357
f 358/358/358 359/359/359 360/360/360
f 361/361/361 362/362/362 363/363/363
f 364/364/364 365/365/365 366/366/366
f 367/367/367 368/368/368 369/369/369
f 370/370/370 371/371/371 372/372/372
f 373/373/373 374/374/374 375/375/375
f 376/376/376 377/377/377 378/378/378
f 379/379/379 380/380/380 381/381/381
f 382/382/382 383/383/383 384/384/384
f 385/385/385 386/386/386 387/387/387
f 388/388/388 389/389/389 390/390/390
f 391/391/391 392/392/392 393/393/393
f 394/394/394 395/395/395 396/396/396
f 397/397/397 398/398/398 399/399/399
f 400/400/400 401/401/401 402/402/402
f 403/403/403 404/404/404 405/405/405
f 406/406/406 407/407/407 408/408/408
f 409/409/409 410/410/410 411/411/411
f 412/412/412 413/413/413 414/414/414
f 415/415/415 416/416/416 417/417/417
f 418/418/418 419/419/419 420/420/420
f 421/421/421 422/422/422 423/423/423
f 424/424/424 425/425/425 426/426/426
f 427/427/427 428/428/428 429/429/429
f 430/430/430 431/431/431 432/432/432
f 433/433/433 434/434/434 435/435/435
f 436/436/436 437/437/437 438/438/438
f 439/439/439 440/440/440 441/441/441
f 442/442/442 443/443/443 444/444/444
f 445/445/445 446/446/446 447/447/447
f 448/448/448 449/449/449 450/450/450
f 451/451/451 452/452/452 453/453/453
f 454/454/454 455/455/455 456/456/456